<svg xmlns="http://www.w3.org/2000/svg" width="465" height="302" fill="none"><path fill="#35D5F1" d="M195.773 98.387v-.64c0-.2 0-.413-.013-.627v-.626c-.013-.214-.013-.427-.013-.627-.014-.213-.014-.427-.027-.64 0-.2-.013-.413-.013-.627a9.006 9.006 0 0 1-.027-.626c-.013-.2-.027-.414-.027-.614-.013-.213-.026-.426-.04-.626l-.04-.627-.04-.626-.04-.614c-.013-.213-.04-.413-.053-.627-.013-.2-.04-.4-.053-.613-.014-.2-.04-.413-.054-.613-.026-.214-.04-.414-.066-.614-.014-.213-.04-.413-.067-.626-.013-.2-.04-.4-.067-.614-.013-.2-.04-.4-.066-.613-.027-.2-.054-.4-.08-.613l-.08-.6-.08-.614c-.027-.2-.054-.4-.094-.613l-.08-.6c-.04-.2-.066-.4-.093-.613-.04-.2-.067-.4-.107-.6-.026-.2-.066-.4-.093-.6-.04-.2-.08-.4-.107-.6l-.12-.6c-.026-.2-.066-.4-.106-.6l-.12-.6-.12-.6-.12-.6c-.04-.2-.08-.387-.134-.587l-.12-.6c-.053-.2-.093-.387-.146-.587-.04-.2-.08-.4-.134-.586a7.7 7.7 0 0 0-.146-.587c-.04-.2-.094-.4-.134-.6-.053-.186-.106-.387-.16-.573a7.7 7.7 0 0 0-.146-.587c-.054-.2-.107-.4-.16-.587-.054-.2-.107-.386-.16-.586-.054-.187-.107-.387-.16-.574-.054-.2-.107-.386-.16-.586-.067-.187-.12-.387-.174-.573-.053-.187-.12-.387-.173-.574-.053-.187-.12-.387-.173-.573-.067-.2-.12-.387-.187-.574a9.13 9.13 0 0 0-.187-.573 9.795 9.795 0 0 0-.186-.573 9.4 9.4 0 0 0-.187-.56c-.067-.2-.133-.387-.187-.573l-.2-.56-.2-.56a7.025 7.025 0 0 0-.213-.574l-.2-.56c-.067-.187-.147-.373-.213-.56a9.493 9.493 0 0 0-.214-.547c-.066-.186-.146-.373-.213-.56-.08-.186-.147-.373-.227-.56-.066-.173-.146-.36-.213-.546-.08-.187-.16-.36-.227-.547-.08-.187-.16-.373-.24-.547-.08-.186-.146-.373-.226-.546-.08-.187-.16-.374-.24-.547-.08-.187-.16-.373-.24-.547-.08-.186-.16-.36-.24-.546-.08-.174-.16-.36-.254-.534-.08-.186-.16-.36-.24-.546a6.662 6.662 0 0 1-.253-.534c-.093-.173-.173-.36-.253-.533-.094-.173-.174-.36-.267-.533a9.475 9.475 0 0 0-.267-.534c-.08-.173-.173-.346-.253-.52-.093-.186-.187-.36-.28-.533a9.147 9.147 0 0 0-.267-.52c-.093-.187-.186-.36-.266-.533l-.28-.52-.28-.52c-.094-.174-.187-.347-.294-.52a15.184 15.184 0 0 0-.28-.507c-.093-.173-.186-.347-.293-.52a6.379 6.379 0 0 0-.293-.507c-.094-.173-.187-.346-.294-.52-.093-.16-.2-.333-.293-.506-.107-.174-.2-.334-.307-.507-.093-.173-.2-.333-.306-.507-.094-.16-.2-.333-.307-.493-.093-.173-.2-.333-.307-.507-.106-.16-.213-.333-.32-.493-.093-.173-.2-.333-.306-.507-.107-.16-.214-.32-.32-.493-.107-.16-.214-.32-.32-.493-.107-.16-.227-.32-.334-.48a12.785 12.785 0 0 0-.32-.493c-.12-.16-.226-.32-.333-.48-.107-.174-.227-.334-.333-.494-.107-.16-.227-.32-.334-.48-.12-.16-.226-.32-.346-.48-.107-.16-.227-.32-.334-.48-.12-.16-.24-.32-.346-.467a11.1 11.1 0 0 1-.347-.48c-.12-.16-.24-.32-.36-.466a6.141 6.141 0 0 0-.347-.467c-.12-.16-.24-.32-.36-.467-.12-.16-.24-.32-.36-.466-.12-.16-.24-.307-.36-.467-.12-.16-.24-.307-.36-.467-.12-.146-.24-.293-.36-.453-.133-.146-.253-.306-.373-.453l-.373-.454c-.12-.146-.254-.306-.374-.453a6.216 6.216 0 0 1-.373-.453c-.133-.147-.253-.294-.387-.44-.12-.147-.253-.294-.386-.44a11.98 11.98 0 0 0-.387-.454c-.12-.146-.253-.293-.387-.44l-.386-.426a10.888 10.888 0 0 1-.387-.44 12.535 12.535 0 0 0-.4-.427l-.4-.44a12.53 12.53 0 0 1-.4-.427 12.63 12.63 0 0 1-.4-.426c-.133-.134-.267-.28-.413-.413-.134-.147-.267-.28-.4-.427l-.414-.414c-.133-.146-.28-.28-.413-.413-.133-.147-.28-.28-.413-.413-.147-.147-.28-.28-.427-.414-.133-.133-.267-.28-.413-.413-.147-.133-.28-.267-.427-.4-.133-.133-.28-.267-.427-.4a6.125 6.125 0 0 0-.426-.4 12.84 12.84 0 0 0-.427-.4 12.84 12.84 0 0 1-.427-.4 10.737 10.737 0 0 0-.44-.387l-.44-.4c-.146-.12-.293-.253-.44-.386-.146-.12-.293-.254-.44-.387-.146-.12-.293-.253-.44-.373-.146-.134-.306-.253-.453-.387-.147-.12-.293-.253-.44-.373-.16-.134-.307-.254-.453-.374-.16-.133-.307-.253-.454-.373-.16-.12-.306-.253-.466-.373-.147-.12-.294-.24-.454-.36-.146-.133-.306-.254-.453-.374-.16-.12-.307-.24-.467-.36-.16-.12-.306-.24-.466-.36-.16-.12-.307-.226-.467-.346-.16-.12-.307-.24-.467-.36-.16-.12-.32-.227-.466-.347-.16-.12-.32-.227-.48-.346-.16-.12-.32-.227-.48-.347l-.467-.347c-.16-.107-.32-.227-.48-.333-.16-.12-.333-.227-.493-.334-.16-.12-.32-.226-.48-.333-.16-.12-.32-.227-.48-.333-.174-.107-.334-.227-.494-.334-.16-.106-.32-.213-.493-.32-.16-.106-.32-.213-.493-.32a15.17 15.17 0 0 0-.494-.32c-.16-.106-.333-.213-.493-.32a9.878 9.878 0 0 0-.493-.306c-.174-.107-.334-.214-.507-.32-.173-.094-.333-.2-.507-.307-.16-.093-.333-.2-.493-.307-.173-.093-.347-.2-.507-.293-.173-.107-.346-.2-.52-.307-.16-.093-.333-.186-.506-.293a9.521 9.521 0 0 1-.507-.293l-.52-.28c-.173-.107-.347-.2-.52-.293-.173-.094-.347-.187-.507-.28l-.52-.28a23.41 23.41 0 0 1-.533-.28l-.52-.28a9.55 9.55 0 0 1-.52-.267c-.187-.094-.36-.174-.533-.267-.174-.093-.347-.173-.534-.267-.173-.08-.346-.173-.52-.253-.186-.093-.36-.173-.533-.267-.187-.08-.36-.173-.547-.253-.173-.08-.346-.173-.533-.253-.173-.08-.36-.174-.533-.254-.187-.08-.36-.16-.547-.24-.173-.08-.36-.16-.533-.24-.187-.08-.36-.16-.547-.24-.187-.08-.36-.16-.547-.24-.186-.08-.36-.16-.546-.24-.187-.066-.36-.146-.547-.226-.187-.08-.373-.147-.547-.227-.186-.08-.373-.147-.56-.227-.186-.066-.36-.146-.546-.213a9.401 9.401 0 0 0-.56-.213c-.187-.08-.374-.147-.56-.227l-.56-.2a9.401 9.401 0 0 0-.56-.213 360.525 360.525 0 0 1-1.12-.4 28.788 28.788 0 0 0-.574-.2 8.962 8.962 0 0 0-.56-.187 26.55 26.55 0 0 0-.573-.2c-.187-.053-.373-.12-.56-.187-.2-.053-.387-.12-.573-.186-.2-.054-.387-.12-.574-.174-.2-.053-.386-.12-.573-.173-.2-.067-.387-.12-.573-.173a9.77 9.77 0 0 0-.587-.174c-.187-.053-.387-.106-.573-.16a9.77 9.77 0 0 0-.587-.173c-.187-.053-.387-.107-.573-.16-.2-.053-.387-.093-.587-.147-.2-.053-.387-.106-.587-.16-.2-.053-.386-.093-.586-.146-.187-.054-.387-.094-.587-.147-.2-.04-.387-.093-.587-.133-.2-.054-.4-.094-.586-.147-.2-.04-.4-.093-.6-.133-.187-.04-.387-.094-.587-.134l-.6-.12c-.2-.04-.387-.093-.587-.133l-.6-.12c-.2-.04-.4-.067-.6-.107l-.6-.12c-.2-.04-.4-.066-.6-.106-.2-.04-.4-.067-.6-.107-.2-.04-.4-.067-.6-.107-.213-.026-.413-.066-.613-.093-.2-.027-.4-.067-.6-.093-.2-.027-.413-.067-.613-.094l-.6-.08c-.214-.026-.414-.066-.614-.093l-.613-.08c-.2-.027-.4-.04-.613-.067l-.614-.08c-.2-.013-.4-.04-.613-.066-.2-.014-.4-.04-.613-.067-.2-.013-.414-.04-.614-.053-.213-.027-.413-.04-.613-.054a9.877 9.877 0 0 0-.627-.053c-.2-.027-.413-.04-.613-.053l-.627-.04c-.2-.027-.413-.04-.613-.054-.213-.013-.427-.013-.627-.026l-.626-.04c-.214-.014-.414-.014-.627-.027-.2-.013-.413-.013-.627-.027-.2-.013-.413-.013-.626-.026-.214 0-.414-.014-.627-.014-.213 0-.413-.013-.627-.013-.213 0-.426-.013-.626-.013h-2.534c-.213 0-.413.013-.626.013-.214 0-.414.013-.627.013-.213 0-.427.014-.627.014-.213.013-.426.013-.626.026-.214.014-.427.014-.627.027-.213.013-.413.013-.627.027l-.626.04c-.2.013-.414.013-.627.026-.2.014-.413.027-.613.054l-.627.04c-.2.013-.413.026-.613.053a9.924 9.924 0 0 0-.627.053c-.2.014-.413.027-.613.054-.2.013-.414.04-.614.053-.213.027-.413.053-.613.067-.213.026-.413.053-.613.066l-.614.08c-.213.027-.413.04-.613.067l-.613.08c-.2.027-.414.067-.614.093l-.6.08c-.213.027-.413.067-.613.094-.2.026-.4.066-.6.093-.2.027-.413.067-.613.093-.2.04-.4.067-.6.107-.2.04-.4.067-.6.107-.2.04-.4.066-.6.106l-.6.12c-.2.04-.4.067-.6.107l-.6.12c-.2.04-.4.093-.587.133l-.6.12c-.2.04-.4.094-.587.134-.2.04-.4.093-.6.133-.2.053-.386.093-.586.147-.2.04-.4.093-.587.133-.2.053-.4.093-.587.147-.2.053-.4.093-.586.146-.2.054-.387.107-.587.16-.2.054-.387.094-.587.147-.186.053-.386.107-.573.16-.2.053-.387.107-.587.173-.186.054-.386.107-.573.16a9.76 9.76 0 0 0-.587.174c-.186.053-.373.106-.573.173-.187.053-.387.12-.573.173-.187.054-.387.12-.574.174-.186.066-.373.133-.573.186-.187.067-.373.134-.56.187-.2.067-.387.133-.573.2-.187.053-.374.12-.574.187l-.56.2-.56.2-.56.2a9.615 9.615 0 0 0-.56.213l-.56.2c-.186.08-.373.147-.56.227a9.61 9.61 0 0 0-.56.213c-.186.067-.36.147-.546.213-.187.08-.374.147-.56.227-.174.08-.36.147-.547.227-.187.08-.36.16-.547.226-.186.08-.36.16-.546.24-.187.08-.36.16-.547.24-.187.08-.36.16-.547.24-.173.08-.36.16-.533.24-.187.08-.36.16-.547.24-.173.08-.36.174-.533.254-.187.08-.36.173-.547.253-.173.08-.346.173-.533.253-.173.094-.347.174-.533.267-.174.08-.347.173-.52.253-.187.094-.36.174-.534.267-.173.093-.36.173-.533.267a9.55 9.55 0 0 1-.52.266l-.52.28c-.187.094-.36.187-.533.28l-.52.28c-.174.094-.347.187-.507.28-.173.094-.347.187-.52.294l-.52.28c-.173.106-.333.2-.507.293-.173.107-.346.2-.506.293-.174.107-.347.2-.52.307-.16.093-.334.2-.507.293-.16.107-.333.214-.493.307-.174.107-.347.213-.507.307-.173.106-.333.213-.507.32-.16.093-.333.2-.493.306-.173.107-.333.214-.493.32-.174.107-.334.214-.494.32-.173.107-.333.214-.493.32-.173.107-.333.214-.493.32l-.494.334c-.16.106-.32.213-.48.333-.16.107-.32.213-.493.333-.16.107-.32.214-.48.334-.16.106-.32.226-.48.333-.16.12-.32.227-.467.347-.16.12-.32.227-.48.347-.16.12-.32.226-.48.346-.146.12-.306.227-.466.347-.16.12-.307.24-.467.36-.16.12-.32.226-.467.346-.16.12-.306.24-.466.36-.16.12-.307.24-.467.36-.147.12-.307.24-.453.374-.16.12-.307.24-.467.36-.147.12-.293.253-.453.373-.147.12-.294.24-.454.373-.146.12-.293.24-.453.374-.147.12-.293.253-.44.373-.16.134-.307.253-.453.387-.147.12-.294.253-.44.373-.147.133-.294.267-.44.387-.147.133-.294.267-.44.387l-.44.4c-.147.12-.294.253-.44.386-.147.133-.28.267-.427.4a12.63 12.63 0 0 0-.427.4c-.146.12-.293.267-.426.4-.147.134-.294.267-.427.4a12.84 12.84 0 0 0-.427.4c-.146.133-.28.28-.426.413-.134.134-.28.267-.414.414-.133.133-.28.266-.413.413-.133.133-.28.267-.413.413l-.414.414c-.133.146-.266.28-.413.427-.133.133-.267.28-.4.413-.133.146-.267.293-.4.427-.133.146-.267.293-.4.426l-.4.44c-.133.133-.267.28-.4.427-.133.146-.253.293-.387.44a12.63 12.63 0 0 1-.4.426c-.12.147-.253.294-.386.44l-.374.454c-.133.146-.266.293-.386.44-.134.147-.254.293-.387.44-.12.16-.253.306-.373.453-.12.147-.254.307-.374.453l-.373.454c-.12.146-.24.306-.373.453-.12.16-.24.307-.36.453-.12.16-.24.307-.36.467-.12.16-.254.307-.374.467-.12.146-.226.306-.346.466-.12.147-.24.307-.36.467-.12.147-.24.307-.36.467-.107.146-.227.306-.347.467-.12.16-.227.32-.347.48-.12.146-.226.306-.346.466-.107.16-.227.32-.334.48-.12.16-.226.32-.346.48-.107.16-.227.32-.334.48-.106.16-.226.32-.333.494-.107.16-.227.32-.333.48-.107.16-.214.32-.32.493-.12.16-.227.32-.334.48-.106.173-.213.333-.32.493-.106.174-.213.333-.32.493-.106.174-.213.334-.32.507-.093.16-.2.333-.306.493-.107.174-.214.334-.307.507-.107.16-.213.333-.307.493-.106.174-.213.334-.306.507-.107.173-.2.333-.307.507-.093.173-.2.346-.293.506-.107.174-.2.347-.294.52-.106.16-.2.334-.293.507-.107.173-.2.347-.293.52-.094.16-.187.333-.294.507l-.28.52-.28.52-.28.52c-.093.173-.173.346-.266.533l-.28.52c-.08.173-.174.347-.267.533-.08.174-.173.347-.267.52-.08.174-.173.36-.253.534-.093.173-.173.36-.267.533-.08.173-.16.36-.253.533-.08.187-.173.36-.253.534-.08.186-.16.36-.24.546-.094.174-.174.36-.254.534-.08.186-.16.36-.24.546-.08.174-.16.36-.24.547-.08.173-.16.36-.24.547-.08.173-.16.36-.226.546-.08.174-.16.36-.24.547-.067.187-.147.36-.227.547-.067.186-.147.373-.213.546-.08.187-.16.374-.227.56-.067.187-.147.374-.213.56-.08.187-.147.36-.214.547-.08.187-.146.373-.213.56a9.606 9.606 0 0 1-.213.56c-.067.187-.134.373-.2.573l-.2.56-.2.56c-.067.187-.12.374-.187.574l-.2.56c-.053.186-.12.386-.187.573-.053.187-.12.387-.173.573-.067.187-.12.374-.187.574-.053.186-.12.386-.173.573-.053.187-.12.387-.173.574-.054.186-.12.386-.174.573-.053.2-.106.386-.16.586-.053.187-.106.387-.16.574-.053.2-.106.386-.16.586-.053.187-.106.387-.16.587-.053.187-.106.387-.16.587-.04.186-.093.386-.146.573-.04.2-.094.4-.147.6-.04.187-.093.387-.133.587-.054.186-.094.386-.147.586-.04.2-.08.387-.133.587-.04.2-.08.4-.134.6l-.12.587-.12.6-.12.6-.12.6-.12.6c-.026.2-.066.4-.106.6-.027.2-.067.4-.107.6-.027.2-.067.4-.093.6-.04.2-.067.4-.107.6a8.452 8.452 0 0 1-.093.613c-.027.2-.054.4-.094.6-.026.213-.053.413-.08.613l-.08.614-.08.6c-.026.213-.053.413-.08.613-.026.213-.053.413-.066.613l-.08.614c-.014.213-.04.413-.054.626-.026.2-.04.4-.066.614-.014.2-.04.413-.054.613-.026.213-.04.413-.053.613-.013.214-.04.414-.053.627l-.04.614-.04.626-.04.627c-.014.2-.027.413-.04.626 0 .2-.014.414-.027.614-.013.213-.013.426-.027.626 0 .214-.013.427-.013.627-.013.213-.013.427-.027.64 0 .2-.013.413-.013.627 0 .2 0 .413-.013.626v2.52c.013.214.013.427.013.64 0 .2.013.414.013.627.014.213.014.413.027.627 0 .213.013.413.013.626.014.214.014.414.027.627.013.2.027.413.027.627l.04.626.04.614.04.626.04.614c.013.213.04.413.053.626.013.2.027.414.053.614.014.213.04.413.054.626.026.2.04.4.066.614.014.2.04.413.054.613l.08.613c.013.2.04.414.066.614l.08.613c.027.2.054.4.08.613l.08.6.08.614c.04.2.067.4.094.613.04.2.066.4.093.6.04.2.067.4.107.6.026.2.066.4.093.613.04.2.08.4.107.6.04.2.08.4.106.6l.12.6.12.6.12.587.12.6.12.6c.054.187.094.387.134.587.053.2.093.4.133.586.053.2.093.4.147.6.04.187.093.387.133.587.053.2.107.387.147.587.053.2.106.386.146.586.054.187.107.387.16.587.054.187.107.387.16.573.054.2.107.4.16.587.054.2.107.387.16.587.054.186.107.386.16.573.054.187.12.387.174.573.053.2.12.387.173.574.053.2.12.386.173.586.067.187.12.374.187.574.053.186.12.373.173.56.067.2.134.386.187.573.067.187.133.387.2.573.067.187.12.374.187.56.066.187.133.374.2.574l.2.56.2.56c.08.186.146.373.213.56.067.186.133.373.213.56.067.186.134.373.214.56.066.186.146.373.213.546.067.187.147.374.227.56.066.187.146.374.213.547.08.187.16.373.227.56.08.173.16.36.24.547.066.173.146.36.226.546.08.174.16.36.24.547.08.173.16.36.24.533.08.187.16.374.24.547.08.187.16.36.254.547.08.173.16.36.24.533.08.173.173.36.253.533.093.187.173.36.253.534.094.186.174.36.267.533.08.187.173.36.253.533.094.174.187.36.267.534.093.173.187.346.267.52.093.186.186.36.28.533.093.173.173.347.266.52l.28.52.28.52.28.52c.107.173.2.347.294.52.093.173.186.347.293.507.093.173.187.346.293.52.094.173.187.333.294.506.093.174.2.347.293.507.107.173.2.347.307.507.093.173.2.333.306.506.094.174.2.334.307.507.093.16.2.333.307.493.106.174.213.334.306.507.107.16.214.333.32.493.107.16.214.334.32.494.107.16.214.333.32.493.107.16.214.333.334.493l.32.48c.106.174.226.334.333.494.107.16.227.32.333.48.107.16.227.32.334.48.12.16.226.32.346.48.107.16.227.32.334.48.12.16.226.32.346.48l.347.466c.12.16.24.32.347.48.12.147.24.307.36.467.12.16.24.307.36.467.12.146.226.306.346.466l.374.454c.12.16.24.306.36.466.12.147.24.307.36.454l.373.453c.12.16.253.307.373.453.12.16.254.307.374.454.12.16.253.306.373.453.133.147.253.293.387.44.12.16.253.307.386.453.12.147.254.294.374.44.133.147.266.294.386.44l.4.44.387.427.4.44c.133.147.267.28.4.427.133.146.267.28.4.426.133.147.267.28.4.427.133.147.267.28.4.427.147.133.28.28.413.413.134.147.28.28.414.427.133.133.28.266.413.413.133.133.28.267.413.413.134.134.28.267.414.414.146.133.28.266.426.4.134.133.28.266.427.413.133.133.28.267.427.4.133.133.28.267.426.4.134.133.28.267.427.4.147.133.28.267.427.387l.44.4c.146.133.293.253.44.386.146.134.293.267.44.387.146.133.293.267.44.387.146.133.293.253.44.386.146.12.293.254.453.374.147.133.293.253.44.386.16.12.307.24.453.374.16.12.307.24.454.373.16.12.306.24.453.36.16.12.307.253.467.373.146.12.306.24.453.36.16.12.307.24.467.36.16.12.306.24.466.36.147.12.307.24.467.36l.467.347c.16.12.32.24.466.347l.48.36c.16.106.32.226.48.333.147.12.307.24.467.347.16.12.32.226.48.333.16.12.32.227.48.347.173.106.333.213.493.333l.48.32c.16.12.334.227.494.333.16.107.32.214.493.32.16.12.32.227.493.334.16.106.32.213.494.32.16.093.32.2.493.306.16.107.333.214.493.32.174.107.334.2.507.307.16.107.333.2.507.307.16.106.333.2.493.306.173.094.347.2.507.307.173.093.346.187.52.293.16.094.333.2.506.294.174.093.334.2.507.293.173.093.347.2.52.293l.52.28c.16.094.333.187.507.28.173.107.346.2.52.294.173.093.346.173.533.266l.52.28c.173.094.347.187.52.267.173.093.36.187.533.267.174.093.347.186.534.266.173.094.346.174.52.267.186.08.36.173.533.253.187.094.36.174.533.254.187.093.36.173.547.253.173.093.36.173.533.253.187.08.36.16.547.254.173.08.36.16.533.24.187.08.36.16.547.24.187.08.36.16.547.24.186.066.36.146.546.226.187.08.36.16.547.227.187.08.373.16.547.227.186.08.373.16.56.226.186.08.36.147.546.227.187.067.374.147.56.213.187.067.374.147.56.214.187.066.374.133.56.213l.56.2c.187.067.374.133.56.213l.56.2c.187.067.374.12.56.187.2.067.387.133.574.2.186.067.373.12.573.187.187.066.373.133.56.186.2.067.387.12.573.187.187.053.387.12.574.173.186.067.386.12.573.187.2.053.387.107.573.173.2.054.387.107.587.16.187.067.387.12.573.174.2.053.387.106.587.16.187.053.387.106.573.16.2.053.387.106.587.16.2.053.387.093.587.146.186.054.386.107.586.147.187.053.387.107.587.147.187.053.387.093.587.146.2.04.386.094.586.134.2.053.4.093.6.133.187.053.387.093.587.133.2.04.4.094.6.134.187.04.387.08.587.12l.6.12.6.12c.2.04.4.066.6.106.2.04.4.08.6.107.2.04.4.08.6.107.2.04.4.066.6.106.2.027.413.067.613.094.2.04.4.066.6.093.2.04.4.067.613.093.2.027.4.067.6.094l.614.08.613.08.613.08c.2.026.4.04.614.066.2.027.4.054.613.067.2.027.4.04.613.067.2.026.414.04.614.066.2.014.413.027.613.054.213.013.413.04.627.053l.613.04c.213.027.413.04.627.053l.613.04.627.04c.213.014.413.027.626.027l.627.04c.2 0 .413.013.627.013.2.014.413.027.626.027.2.013.414.013.627.013.213.014.413.014.627.027h.626c.214 0 .427.013.64.013H99c.027 0 .067-.013.107-.013h.8c.04 0 .08-.013.12-.013h.453c.04 0 .08-.014.107-.014h.346c.04 0 .08 0 .107-.013h.347c.04 0 .08-.013.12-.013h.226c.027 0 .067-.014.107-.014h.227c.04 0 .08-.013.12-.013h.226c.027-.013.067-.013.107-.013h.12c.027 0 .067 0 .107-.014h.226c.04-.013.08-.013.12-.013h.107c.04 0 .08-.013.107-.013h.12c.04 0 .08-.014.106-.014h.12c.04 0 .08 0 .107-.013h.12c.04 0 .067-.013.107-.013h.12c.04 0 .066-.014.106-.014h.12c.027 0 .067-.013.107-.013h.12c.027-.013.067-.013.107-.013.04 0 .08 0 .106-.014h.12c.04 0 .067-.013.107-.013h.12c.04-.013.067-.013.107-.013.04 0 .08 0 .12-.014h.106c.04 0 .08-.013.107-.013.04 0 .08 0 .12-.013h.107c.04 0 .08-.014.12-.014.026 0 .066 0 .106-.013h.12c.027 0 .067-.013.107-.013.04 0 .08 0 .107-.014h.12c.04-.013.066-.013.106-.013.04 0 .08-.013.12-.013.027 0 .067 0 .107-.014h.107c.04-.013.08-.013.12-.013.026 0 .066-.013.106-.013.04 0 .08 0 .107-.014.04 0 .08 0 .12-.013h.107c.04-.013.08-.013.12-.013.026 0 .066-.014.106-.014.04 0 .08-.013.107-.013.04 0 .08 0 .12-.013.027 0 .067 0 .107-.014h.106c.04-.013.08-.013.12-.013.04-.013.067-.013.107-.013.04 0 .08-.014.107-.014.04 0 .08-.013.12-.013.04 0 .066-.013.106-.013.04 0 .08-.014.107-.014.04 0 .08 0 .12-.013.04 0 .067 0 .107-.013.04 0 .08 0 .106-.014.04 0 .08 0 .12-.013.04 0 .067 0 .107-.013.04 0 .08 0 .107-.014.04 0 .08 0 .12-.013.04 0 .066 0 .106-.013.04 0 .08 0 .107-.014.04 0 .08 0 .12-.013.04 0 .067 0 .107-.013.04 0 .08 0 .106-.014.04 0 .08 0 .12-.013.027 0 .067 0 .107-.013.04 0 .08 0 .107-.014.04 0 .08-.013.12-.013.026 0 .066-.013.106-.013.04 0 .067-.014.107-.014.04 0 .08-.013.107-.013.04-.013.08-.013.12-.013.026-.014.066-.014.106-.014.04-.013.08-.013.107-.026.04 0 .08 0 .12-.014.027 0 .067 0 .107-.013.04 0 .066-.013.106-.013.04 0 .08-.014.107-.014.04-.013.08-.013.12-.013.027-.013.067-.013.107-.013.04-.014.066-.014.106-.027.04 0 .08 0 .107-.013.04 0 .08-.014.12-.014.027 0 .067-.013.107-.013.04-.013.066-.013.106-.027.04 0 .08 0 .107-.013.04 0 .08-.013.12-.013.027 0 .067-.014.107-.014.04-.013.066-.013.106-.026.04 0 .08 0 .107-.014.04 0 .08-.013.12-.013.027-.013.067-.013.107-.013.04-.014.066-.014.106-.027.04 0 .067-.013.107-.013.04 0 .08-.014.107-.014.04-.013.08-.013.12-.026.026 0 .066-.014.106-.014.04 0 .067-.013.107-.013.04-.013.08-.013.107-.027.04 0 .08-.013.106-.013.04-.013.08-.013.12-.013.027-.014.067-.014.107-.027.04 0 .067-.013.107-.013.04-.014.08-.014.106-.027.04 0 .08-.013.107-.013.04-.014.08-.014.12-.027.027 0 .067 0 .107-.013.04 0 .066-.014.106-.014.04-.013.067-.013.107-.026.04 0 .08-.014.107-.014.04-.013.08-.013.106-.026.04 0 .08-.014.12-.014.027-.013.067-.013.107-.026.04 0 .067-.014.107-.014.04-.013.066-.013.106-.026.04 0 .08-.014.107-.014.04-.013.08-.013.107-.026.04 0 .08-.014.12-.014.026-.013.066-.013.106-.026.027 0 .067-.014.107-.014.04-.013.067-.013.107-.026.04 0 .066-.014.106-.014a.42.42 0 0 1 .107-.026c.04-.014.08-.014.107-.027.04 0 .08-.013.106-.013.04-.014.08-.014.12-.027.027 0 .067-.013.107-.013a.244.244 0 0 1 .107-.027c.04-.013.066-.013.106-.027.04 0 .067-.013.107-.013.04-.013.067-.013.107-.027.04-.013.08-.013.106-.026.04 0 .08-.014.107-.014.04-.013.08-.013.107-.026.04-.014.08-.014.12-.027.026 0 .066-.013.106-.013.027-.014.067-.014.107-.027.027-.013.067-.013.107-.027.026 0 .066-.013.106-.013.04-.013.067-.027.107-.027.04-.013.067-.013.107-.026.04 0 .066-.014.106-.027.04 0 .067-.013.107-.013a.388.388 0 0 1 .107-.027c.04-.013.08-.013.106-.027.04-.013.08-.013.107-.026.04 0 .08-.014.107-.014.04-.013.08-.026.106-.026.04-.014.08-.014.107-.027.04-.013.08-.013.12-.027a.42.42 0 0 0 .107-.026c.026 0 .066-.014.106-.027.027 0 .067-.013.107-.013a.244.244 0 0 1 .107-.027c.026-.013.066-.013.106-.027.027-.013.067-.013.107-.026.027-.014.067-.014.107-.027a.391.391 0 0 0 .106-.027.42.42 0 0 0 .107-.026c.027 0 .067-.014.107-.014a.25.25 0 0 1 .106-.026.244.244 0 0 1 .107-.027.26.26 0 0 1 .107-.027.25.25 0 0 1 .106-.026c.027-.014.067-.014.107-.027.027-.013.067-.013.107-.027.026-.013.066-.013.106-.026.027-.014.067-.014.107-.027.027-.013.067-.013.107-.027.026-.013.066-.013.106-.026.027-.014.067-.014.107-.027.027-.013.067-.013.107-.027.026-.013.066-.013.106-.026.027-.014.067-.014.107-.027.027-.013.067-.013.107-.027.026-.013.066-.013.093-.026.04-.014.08-.014.107-.027.04-.013.08-.013.106-.027.04-.013.08-.013.107-.026a.388.388 0 0 1 .107-.027c.04-.013.08-.027.106-.027.04-.013.067-.026.107-.026.04-.014.067-.027.107-.04.04 0 .066-.014.106-.027.04 0 .067-.013.107-.027.04 0 .067-.013.107-.026.026-.014.066-.014.106-.027.027-.013.067-.013.107-.027a.26.26 0 0 1 .107-.026.23.23 0 0 1 .093-.027.95.95 0 0 0 .107-.04c.04 0 .08-.013.106-.027a.26.26 0 0 0 .107-.026c.04-.014.067-.014.107-.027.04-.013.066-.027.106-.027.04-.013.067-.026.107-.026a.789.789 0 0 1 .107-.04c.026 0 .066-.014.106-.027.027-.013.067-.013.107-.027a.256.256 0 0 1 .093-.026c.04-.014.08-.027.107-.04.04 0 .067-.014.107-.027.04-.013.066-.013.106-.027.04-.013.067-.026.107-.026.027-.014.067-.027.107-.04.026 0 .066-.014.106-.027.027-.013.067-.013.094-.027a.724.724 0 0 0 .106-.04c.04 0 .067-.013.107-.026.04-.014.067-.014.107-.027.04-.013.066-.027.106-.04a.388.388 0 0 0 .107-.027c.027-.013.067-.013.093-.026-.013.213-.04.44-.053.653-.027.227-.04.44-.067.653-.026.227-.04.44-.066.654-.027.226-.04.44-.067.653l-.08.653c-.013.214-.04.427-.067.654l-.08.64-.08.64-.08.64-.08.64c-.026.213-.066.426-.093.64-.027.2-.053.413-.08.626-.04.214-.067.427-.093.627-.04.213-.067.427-.094.64-.04.2-.066.413-.106.627-.027.2-.054.413-.094.613a8.441 8.441 0 0 1-.106.627c-.027.213-.067.413-.094.613-.04.213-.08.413-.106.627-.04.2-.08.413-.107.613l-.12.613c-.027.2-.067.4-.107.614l-.12.6c-.026.2-.066.413-.106.613l-.12.6-.12.6c-.04.2-.08.4-.134.6l-.12.6c-.04.187-.08.387-.12.587-.053.2-.093.4-.133.6-.04.186-.093.386-.133.586-.04.187-.094.387-.134.587-.04.187-.093.387-.133.587-.04.186-.093.386-.133.573-.054.2-.094.387-.147.587-.04.186-.093.386-.133.573-.054.2-.094.387-.147.573-.053.2-.093.387-.147.574-.053.2-.093.386-.146.573-.054.187-.094.373-.147.573-.053.187-.093.374-.147.56a91.46 91.46 0 0 1-.16.56c-.04.187-.093.374-.146.56l-.16.56a8.411 8.411 0 0 0-.147.56l-.16.56c-.053.174-.107.36-.16.547-.053.187-.107.373-.16.547-.067.186-.12.373-.173.546-.054.187-.107.374-.16.547-.054.187-.107.36-.174.547-.053.173-.106.36-.16.533-.053.187-.12.36-.173.547-.053.173-.107.346-.173.533-.054.173-.107.347-.174.533a7.363 7.363 0 0 1-.173.52c-.053.187-.107.36-.173.534-.054.173-.12.346-.174.52-.053.173-.12.36-.173.533-.067.173-.12.347-.187.52-.053.173-.12.347-.173.507-.067.173-.12.346-.187.52-.066.173-.12.346-.186.52-.054.16-.12.333-.187.506-.053.174-.12.334-.173.507-.067.173-.134.333-.2.507-.054.173-.12.333-.187.506-.053.16-.12.334-.187.494-.066.173-.12.333-.186.506-.067.16-.134.334-.187.494-.067.16-.133.333-.2.493-.067.16-.133.333-.187.493-.066.16-.133.32-.2.494l-.2.48c-.066.16-.12.32-.186.48-.067.173-.134.333-.2.493l-.2.48c-.067.16-.134.307-.2.467l-.2.48c-.067.16-.134.32-.2.466l-.2.48c-.067.147-.134.307-.214.467-.066.147-.133.307-.2.453-.066.16-.133.32-.2.467-.066.16-.133.307-.213.467a14.45 14.45 0 0 0-.2.453c-.067.147-.133.307-.213.453-.067.147-.134.307-.2.454-.067.146-.147.293-.214.453l-.2.44c-.08.147-.146.293-.213.44-.067.16-.147.307-.213.453a6.582 6.582 0 0 1-.214.44 6.06 6.06 0 0 1-.213.427l-.2.44c-.08.147-.147.293-.213.427-.08.146-.147.293-.214.44-.08.133-.146.28-.213.426-.08.134-.147.28-.213.427-.08.133-.147.28-.214.413-.08.147-.146.28-.213.427-.08.133-.147.28-.227.413-.066.134-.133.28-.213.414-.067.133-.147.28-.213.413-.067.133-.147.28-.214.413-.08.134-.146.267-.213.4-.08.134-.147.28-.227.414a5.76 5.76 0 0 1-.213.4c-.067.133-.147.266-.213.4a5.75 5.75 0 0 0-.214.4c-.08.12-.146.253-.226.386-.067.134-.147.267-.214.4-.066.12-.146.254-.213.387-.08.12-.147.253-.227.387-.066.12-.146.253-.213.386-.067.12-.147.254-.213.374-.08.133-.147.253-.227.386-.067.12-.147.254-.213.374-.08.12-.147.253-.214.373-.08.12-.146.253-.226.373-.067.12-.147.24-.214.374-.08.12-.146.24-.213.36-.08.12-.147.24-.227.36-.066.12-.146.24-.213.373-.08.107-.147.227-.213.347-.08.12-.147.24-.227.36-.067.12-.147.24-.213.36-.067.106-.147.226-.214.346-.08.12-.146.227-.213.347-.08.12-.147.227-.227.347-.066.12-.146.226-.213.346-.067.107-.147.227-.213.334-.067.12-.147.226-.214.346-.08.107-.146.227-.213.334-.08.106-.147.226-.227.333-.066.107-.133.213-.213.333-.067.107-.133.214-.213.32-.067.107-.134.227-.214.334a4.438 4.438 0 0 1-.213.32c-.067.106-.133.213-.213.32l-.2.32c-.08.106-.147.213-.214.306-.08.107-.146.214-.213.32-.067.107-.147.2-.213.307-.067.107-.134.2-.214.307-.066.106-.133.2-.2.306-.08.094-.146.2-.213.294-.067.106-.133.2-.213.306-.067.094-.134.2-.2.294-.067.106-.134.2-.214.293a4.81 4.81 0 0 1-.2.293c-.066.094-.133.2-.2.294-.08.093-.146.186-.213.28a67.9 67.9 0 0 0-.4.56 67.9 67.9 0 0 0-.4.56c-.067.093-.133.186-.2.266a67.9 67.9 0 0 1-.2.28c-.067.08-.133.174-.2.267-.067.08-.133.173-.2.267-.067.08-.133.173-.2.253-.067.093-.12.173-.187.267-.066.08-.133.173-.2.253-.066.08-.133.173-.186.253-.067.08-.134.174-.2.254-.067.08-.12.16-.187.253a3.01 3.01 0 0 0-.187.24c-.066.08-.133.16-.186.24-.067.08-.134.16-.187.24a3.01 3.01 0 0 0-.187.24c-.066.08-.133.16-.186.24-.067.08-.134.16-.187.227-.067.08-.12.16-.187.24-.053.066-.12.146-.173.226-.067.067-.12.147-.187.227-.053.067-.12.147-.173.213l-.187.227a11.87 11.87 0 0 1-.173.213l-.173.214-.174.213a2.34 2.34 0 0 1-.173.2c-.053.08-.107.147-.16.213-.067.067-.12.134-.173.2-.054.067-.12.134-.174.2l-.16.2-.16.2c-.053.054-.12.12-.173.187-.053.067-.107.12-.16.187a2.366 2.366 0 0 1-.16.186c-.053.067-.093.12-.147.187-.053.067-.106.12-.16.187-.053.053-.106.12-.16.173-.053.053-.093.12-.146.173-.054.067-.107.12-.147.174-.053.053-.107.12-.16.173-.04.053-.093.107-.147.173-.04.054-.093.107-.146.16-.04.054-.094.107-.134.16-.053.054-.093.107-.146.16-.04.054-.094.107-.134.16l-.146.147c-.04.053-.094.107-.134.16-.04.04-.093.093-.133.147-.04.04-.093.093-.133.146l-.134.134c-.04.053-.08.093-.12.146-.053.04-.093.094-.133.134-.04.053-.08.093-.12.133-.04.053-.08.093-.12.133-.04.04-.08.094-.12.134l-.12.12c-.04.04-.08.08-.12.133-.04.04-.067.08-.107.12-.04.04-.08.08-.12.107a.865.865 0 0 1-.106.12.392.392 0 0 1-.107.106.864.864 0 0 1-.107.12c-.026.027-.066.067-.093.107-.04.027-.067.067-.107.093-.026.04-.066.08-.093.107l-.093.093a.67.67 0 0 0-.094.107c-.026.027-.066.053-.093.093-.027.027-.053.054-.093.08-.027.027-.054.067-.08.094a6.03 6.03 0 0 0-.08.08l-.08.08a6.708 6.708 0 0 0-.08.08l-.08.08-.067.066a6.034 6.034 0 0 1-.08.08l-.067.067a.293.293 0 0 1-.066.053c-.014.027-.04.04-.054.067a.222.222 0 0 1-.066.053c-.014.027-.04.04-.054.067-.013.013-.04.027-.053.053-.013.014-.04.027-.053.04a.107.107 0 0 1-.054.054l-.04.04a1.676 1.676 0 0 0-.08.08 1.371 1.371 0 0 0-.04.04c-.013.013-.026.026-.04.026-.013.014-.013.027-.026.04-.014 0-.027.014-.027.027a.029.029 0 0 0-.027.027c-.013 0-.013.013-.026.013l-.027.027-.013.013s-.014 0-.014.013l-.013.014h-.013v.013c-.014 0-.014.013-.014.013H86.6v.014l-.013.013-.014.013-.013.014v.013h-.013c0 .013-.014.013-.014.013 0 .014 0 .014-.013.014 0 .013 0 .013-.013.013 0 .013 0 .013-.014.027l-.013.013s0 .013-.013.013l-.014.014c0 .013-.013.013-.013.026-.013 0-.013 0-.013.014-.014 0-.014.013-.027.013 0 .013 0 .013-.013.027l-.014.013c-.013.013-.013.027-.026.027 0 .013-.014.013-.014.026-.013 0-.013.014-.026.027l-.014.013c-.013.014-.013.027-.026.027 0 .013-.014.013-.014.027l-.026.026c0 .014-.014.014-.027.027 0 .013-.013.013-.013.027l-.027.026c-.013.014-.013.027-.027.027 0 .013-.013.027-.026.04 0 0-.014.013-.014.027-.013.013-.026.013-.026.026a1.298 1.298 0 0 1-.027.027c-.013.013-.027.027-.027.04-.013.013-.026.013-.026.027-.014.013-.027.026-.027.04l-.027.026c-.013.014-.026.027-.026.04-.014.014-.027.027-.027.04-.013.014-.027.014-.04.027 0 .013-.013.027-.027.04 0 .013-.013.027-.026.04-.014.013-.014.027-.027.04-.013.013-.027.027-.027.04l-.04.04c0 .013-.013.027-.026.04-.014.013-.027.027-.027.04l-.04.04c0 .013-.013.027-.027.04-.013.013-.026.027-.026.04l-.04.04c-.014.013-.014.04-.027.053l-.04.04c0 .014-.013.027-.027.04-.013.014-.026.04-.04.054 0 .013-.013.026-.026.04-.014.013-.027.04-.04.053-.014.013-.014.027-.027.04-.013.013-.027.04-.04.053-.013.014-.013.027-.027.054l-.04.04c-.013.013-.026.04-.04.053 0 .013-.013.027-.026.053a1.507 1.507 0 0 1-.04.04c-.014.027-.027.04-.027.054a.188.188 0 0 1-.04.053.172.172 0 0 1-.04.053c-.013.014-.027.04-.04.054a.1.1 0 0 1-.027.053c-.013.013-.026.04-.04.053a.176.176 0 0 1-.04.054c-.013.026-.013.04-.026.053-.014.027-.027.04-.04.067a.175.175 0 0 0-.04.053c-.014.013-.027.04-.04.053 0 .014-.014.04-.027.054-.013.026-.027.04-.04.066-.013.014-.027.04-.04.054a.187.187 0 0 1-.04.053c-.013.027-.013.04-.027.067-.013.013-.026.04-.04.053-.013.027-.026.04-.04.067-.013.013-.026.04-.04.053-.013.027-.026.053-.026.067-.014.026-.027.04-.04.066-.014.014-.027.04-.04.054-.014.026-.027.04-.04.066-.014.027-.027.04-.04.067-.014.013-.014.04-.027.067-.013.013-.027.04-.04.053a.306.306 0 0 1-.04.067c-.013.026-.027.04-.04.066-.013.027-.027.04-.027.067-.013.027-.026.04-.04.067-.013.026-.026.04-.04.066-.013.027-.026.04-.04.067-.013.027-.026.04-.026.067-.014.026-.027.04-.04.066-.014.027-.027.04-.04.067a.298.298 0 0 1-.04.067.1.1 0 0 1-.027.066l-.04.08a.302.302 0 0 0-.04.067c-.013.027-.013.04-.027.067-.013.026-.026.053-.04.066a4.969 4.969 0 0 1-.04.08c0 .014-.013.04-.026.067a.302.302 0 0 1-.04.067.184.184 0 0 0-.027.08c-.013.026-.027.04-.04.066l-.04.08c0 .027-.013.04-.027.067l-.04.08c-.013.027-.013.04-.026.067l-.04.08c0 .026-.014.053-.027.08a.293.293 0 0 0-.04.066.184.184 0 0 1-.027.08c-.013.027-.026.054-.026.08a.302.302 0 0 0-.04.067c-.014.027-.014.053-.027.08l-.04.08a.181.181 0 0 1-.027.08c-.013.013-.013.04-.026.067a.185.185 0 0 0-.027.08 4.966 4.966 0 0 0-.04.08.186.186 0 0 1-.027.08c-.013.026-.013.053-.026.08a.186.186 0 0 0-.027.08.186.186 0 0 0-.027.08l-.04.08a.193.193 0 0 1-.026.08.193.193 0 0 1-.027.08.194.194 0 0 1-.027.08c0 .026-.013.053-.026.08 0 .026-.014.053-.027.08a.186.186 0 0 1-.027.08c0 .026-.013.053-.013.08a.186.186 0 0 0-.027.08.241.241 0 0 0-.026.093c-.014.027-.014.053-.027.08-.013.027-.013.053-.027.08 0 .027-.013.053-.013.08-.013.027-.027.053-.027.08-.013.04-.013.067-.026.093 0 .027-.014.054-.014.08-.013.027-.013.054-.026.08 0 .027-.014.067-.014.094-.013.026-.013.053-.026.08 0 .026-.014.053-.014.08-.013.04-.013.066-.026.093 0 .027-.014.053-.014.08a.197.197 0 0 0-.013.093c-.013.027-.013.054-.027.08 0 .027 0 .054-.013.094 0 .026-.013.053-.013.08 0 .026-.014.053-.014.08-.013.04-.013.066-.013.093a.17.17 0 0 0-.013.08c-.014.04-.014.067-.014.093-.013.027-.013.054-.013.094a.166.166 0 0 0-.013.08c0 .026-.014.053-.014.093 0 .027-.013.053-.013.08 0 .027 0 .067-.013.093v.08c-.014.04-.014.067-.014.094 0 .026 0 .066-.013.093v.08c0 .04 0 .067-.013.093v.174a.259.259 0 0 0-.014.093v.36c-.013.027-.013.053-.013.093v.08c.013.04.013.067.013.094v.28c0 .026 0 .053.014.08V291a.235.235 0 0 1 .013.094v.093a.17.17 0 0 1 .013.08c0 .04.014.067.014.093 0 .04 0 .067.013.094v.093a.228.228 0 0 1 .013.093c.014.027.014.054.014.094.013.026.013.053.013.093.013.027.013.053.013.08.014.04.014.067.027.093 0 .04.013.067.013.094 0 .026.014.066.014.093.013.027.013.067.026.093 0 .027.014.067.014.094.013.026.013.053.026.093 0 .027.014.053.014.093.013.027.026.054.026.08.014.04.014.067.027.094 0 .04.013.066.027.093 0 .04.013.067.026.093 0 .027.014.067.027.094a.24.24 0 0 0 .027.093c0 .027.013.067.026.093.014.027.014.054.027.094a.623.623 0 0 1 .04.093c0 .027.013.053.027.093a.193.193 0 0 1 .026.08c.014.04.027.067.04.094.014.04.027.066.04.093.014.04.014.067.027.093.013.027.027.067.04.094.013.026.027.066.04.093.013.027.027.067.04.093a.692.692 0 0 1 .04.094.623.623 0 0 1 .04.093c.013.027.04.053.053.08.014.04.027.067.04.093.014.04.027.067.04.094.027.04.04.066.054.093.013.027.026.067.053.093.013.027.027.067.04.094.013.026.04.053.053.093.014.027.04.053.054.093.013.027.04.054.053.08.013.04.04.067.053.094.014.026.04.066.054.093.026.027.04.067.053.093.027.027.04.054.067.094.013.026.04.053.053.08.027.04.04.066.067.093.013.04.04.067.053.093a.409.409 0 0 1 .067.094c.026.026.04.053.066.093.027.027.04.053.067.08.027.04.04.067.067.093.026.027.04.067.066.094.027.026.04.053.067.093l.08.08c.013.04.04.067.067.093.026.027.053.067.08.094.013.026.04.053.066.093l.08.08c.027.027.054.053.067.093l.08.08.08.08a.39.39 0 0 0 .067.094l.08.08a.334.334 0 0 1 .066.08l.08.08.08.08a.334.334 0 0 1 .067.08l.08.08c.027.013.053.04.08.066a.39.39 0 0 1 .067.08.32.32 0 0 0 .08.067l.08.08.066.067.08.08c.027.026.054.04.08.066.027.027.054.04.067.067a.363.363 0 0 0 .08.067c.027.026.053.053.08.066.027.027.053.054.08.067a.16.16 0 0 0 .067.067c.026.026.053.04.08.066.026.027.053.04.08.067.026.013.04.04.066.053a.36.36 0 0 0 .08.067c.027.027.054.04.08.067.027.013.054.04.067.053.027.027.053.04.08.067a.264.264 0 0 1 .08.053c.027.013.053.04.08.053.013.027.04.04.067.054.026.026.053.04.08.053.026.027.053.04.08.067.013.013.04.026.066.053l.08.04c.027.027.054.04.08.053.027.027.04.04.067.054.027.013.053.04.08.053a.286.286 0 0 1 .08.053c.027.014.053.027.067.04.026.014.053.04.08.054l.08.04c.026.013.053.04.066.053l.08.04.08.04c.027.013.054.027.067.053l.08.04.08.04c.027.014.053.027.067.04l.08.04.08.04c.026.014.04.027.066.04l.08.04c.027 0 .054.014.08.027a.29.29 0 0 0 .067.04l.08.04c.027.013.053.013.067.027l.08.04c.026.013.053.013.08.026.026.014.04.027.066.04.027.014.054.014.08.027.027.013.054.027.067.027l.08.04c.027 0 .053.013.08.026.013.014.04.014.067.027.026.013.053.013.08.027.013.013.04.026.066.026a.182.182 0 0 0 .08.027c.014.013.04.027.067.027.027.013.053.013.08.026.027.014.04.014.067.027.026.013.053.013.08.027.013 0 .04.013.066.026.027 0 .054.014.08.014.014.013.04.013.067.026.027 0 .053.014.067.014a.192.192 0 0 0 .08.026c.026.014.053.014.066.027.027 0 .054.013.08.013.027.014.04.014.067.014.027.013.053.013.08.026.013 0 .04.014.067.014a.148.148 0 0 0 .066.013c.027.013.054.013.08.027.014 0 .04 0 .067.013.027 0 .053.013.067.013.026 0 .053.014.08.014.013 0 .04.013.066.013.027.013.04.013.067.013a.139.139 0 0 0 .067.014.173.173 0 0 0 .08.013c.026 0 .04.013.066.013.027 0 .04.014.067.014.027 0 .053 0 .067.013h.08c.013.013.04.013.066.013.027 0 .04.014.067.014.027 0 .04 0 .067.013h.066c.027 0 .054.013.067.013h.08c.013.014.04.014.067.014h.066c.014.013.04.013.067.013h.067c.013 0 .04 0 .066.013h.2c.014.014.04.014.067.014h.96c.013-.014.04-.014.053-.014h.12c.027 0 .054 0 .067-.013h.12c.027 0 .04 0 .067-.013h.106c.027-.014.04-.014.067-.014h.053c.027-.013.04-.013.067-.013h.053c.014-.013.04-.013.054-.013h.066c.014-.014.04-.014.054-.014.013 0 .04 0 .053-.013h.053c.027 0 .04-.013.067-.013.013 0 .027 0 .053-.014h.054c.013 0 .04-.013.053-.013.013 0 .04 0 .053-.013h.054c.026-.014.04-.014.053-.014.027 0 .04-.013.053-.013.027 0 .04 0 .054-.013h.053c.013-.014.04-.014.053-.014.014 0 .04-.013.054-.013.013 0 .04-.013.053-.013.013 0 .027 0 .053-.014h.054c.013-.013.026-.013.04-.013.026-.013.04-.013.053-.013.013 0 .04-.014.053-.014.014 0 .027-.013.04-.013.027 0 .04-.013.054-.013.013 0 .04 0 .053-.014.013 0 .027 0 .04-.013.027 0 .04 0 .053-.013.014 0 .027 0 .04-.014h.054c.013-.013.026-.013.04-.013.026-.013.04-.013.053-.013.013-.014.027-.014.04-.014.013-.013.04-.013.053-.013.014-.013.027-.013.04-.013.014-.014.027-.014.04-.014.014-.013.04-.013.054-.013.013-.013.026-.013.04-.013.013-.014.026-.014.04-.014.013-.013.026-.013.04-.013.013-.013.026-.013.04-.013.013-.014.04-.014.053-.014.013-.013.027-.013.04-.013.013-.013.027-.013.04-.013.013-.014.027-.014.04-.014.013-.013.027-.013.04-.013.013-.013.027-.013.04-.013.013-.014.027-.014.04-.014.013-.013.013-.013.027-.013.013-.013.026-.013.04-.013.013-.014.026-.014.04-.014.013-.013.026-.013.04-.013.013-.013.026-.013.04-.013 0-.014.013-.014.026-.014.014-.013.027-.013.04-.013.014-.013.027-.013.027-.013.013-.014.027-.014.04-.014.013-.013.027-.013.04-.013 0-.013.013-.013.027-.013.013-.014.026-.014.04-.014 0-.013.013-.013.026-.013.014-.013.027-.013.027-.013.013-.014.027-.014.04-.014.013 0 .013-.013.027-.013.013 0 .026-.013.026-.013.014 0 .027-.014.04-.014 0 0 .014-.013.027-.013 0 0 .013-.013.027-.013.013 0 .013 0 .026-.014.014 0 .014 0 .027-.013.013 0 .013 0 .027-.013h.026c.014-.014.014-.014.027-.014.013-.013.013-.013.027-.013.013 0 .013-.013.026-.013 0 0 .014-.014.027-.014 0 0 .013 0 .013-.013h.027c.013-.013.013-.013.027-.013 0 0 .013-.014.026-.014l.014-.013c.013 0 .013 0 .026-.013h.014c.013 0 .013-.014.026-.014 0 0 .014 0 .014-.013h.026c0-.013 0-.013.014-.013 0 0 .013 0 .013-.014h.027c0-.013 0-.013.013-.013 0 0 .013 0 .013-.013h.014s.013 0 .013-.014h.013l.014-.013h.013l.013-.013h.014l.013-.014h.013l.014-.013h.013v-.013h.027v-.014h.013c.427-.32.853-.64 1.28-.946.413-.32.84-.64 1.267-.96.413-.32.826-.64 1.253-.96l1.24-.96c.413-.32.827-.64 1.227-.96.413-.32.826-.64 1.226-.96.4-.334.814-.654 1.214-.974.4-.333.8-.653 1.2-.973l1.186-.987c.4-.32.787-.653 1.174-.973.4-.333.786-.653 1.173-.987.387-.32.773-.653 1.16-.986.387-.32.76-.654 1.147-.987.386-.333.76-.653 1.133-.987.387-.333.76-.666 1.133-1 .374-.333.747-.666 1.107-1 .373-.333.747-.666 1.107-1a76.9 76.9 0 0 0 1.093-1 76.9 76.9 0 0 0 1.093-1c.36-.346.72-.68 1.067-1.013.36-.333.72-.667 1.067-1.013.36-.334.706-.667 1.053-1.014.36-.333.707-.666 1.053-1.013.347-.333.694-.68 1.027-1.013.347-.347.693-.68 1.027-1.027.346-.333.68-.68 1.013-1.013.333-.347.68-.694 1.013-1.027l.987-1.027.987-1.026c.333-.347.653-.694.973-1.04.333-.334.653-.68.973-1.027.32-.347.64-.693.947-1.04.32-.333.64-.68.947-1.027.32-.346.626-.693.946-1.04l.92-1.04.92-1.04c.307-.346.614-.693.907-1.04.307-.346.613-.693.907-1.053.293-.347.6-.693.893-1.04.293-.347.587-.693.88-1.053.293-.347.573-.694.867-1.04.293-.347.573-.707.866-1.054.28-.346.574-.693.854-1.053.28-.347.56-.693.84-1.053.28-.347.56-.694.84-1.054.28-.346.546-.693.826-1.053.267-.347.547-.693.814-1.053.28-.347.546-.707.813-1.054.267-.346.533-.706.8-1.053.267-.36.533-.707.787-1.067.266-.346.533-.693.786-1.053l.774-1.053c.253-.36.506-.707.76-1.067.253-.347.506-.707.76-1.053.253-.36.506-.707.746-1.067.254-.347.494-.707.747-1.067.24-.346.48-.706.733-1.053.24-.36.48-.707.72-1.067.24-.346.48-.706.707-1.066.24-.347.48-.707.707-1.054.24-.36.466-.706.706-1.066.227-.36.454-.707.694-1.067.226-.347.453-.707.68-1.053.226-.36.453-.72.666-1.067.227-.36.454-.707.667-1.067.227-.36.44-.706.653-1.066.227-.347.44-.707.654-1.054.213-.36.426-.72.64-1.066.213-.36.426-.707.64-1.067.213-.347.413-.707.626-1.053.2-.36.414-.72.614-1.067.213-.36.413-.707.613-1.067.2-.346.4-.706.6-1.053.2-.36.4-.707.6-1.067.2-.346.387-.706.587-1.053.2-.36.386-.707.586-1.067.187-.346.374-.706.574-1.053.186-.36.373-.707.56-1.053.186-.36.373-.707.56-1.067.186-.347.36-.693.546-1.053.187-.347.36-.707.547-1.054.173-.346.36-.706.533-1.053.174-.347.36-.707.534-1.053.173-.347.346-.707.52-1.054.173-.346.346-.693.506-1.053l.52-1.04c.16-.36.334-.707.494-1.053.16-.347.333-.694.493-1.04.16-.36.333-.707.493-1.054l.48-1.04c.16-.346.307-.693.467-1.04.16-.346.307-.693.467-1.04.16-.346.306-.693.466-1.04.147-.346.294-.693.454-1.04l.44-1.04c.146-.346.293-.68.44-1.026.146-.347.293-.694.426-1.04.147-.334.294-.68.427-1.027.147-.347.293-.68.427-1.027.133-.346.28-.68.413-1.026.133-.334.267-.68.413-1.027.134-.333.267-.68.4-1.013.134-.347.267-.68.387-1.027.133-.333.267-.68.387-1.013a32.3 32.3 0 0 0 .386-1.014c.134-.333.254-.68.374-1.013.133-.333.253-.68.373-1.013.12-.334.253-.667.373-1 .12-.347.24-.68.347-1.014l.36-1c.12-.333.227-.666.347-1 .12-.333.226-.666.346-1 .107-.333.214-.653.334-.986l.32-1c.12-.32.226-.654.333-.987.107-.32.213-.653.32-.987.093-.32.2-.653.307-.973.106-.333.2-.653.306-.987.107-.32.2-.653.307-.973.093-.32.2-.653.293-.973.094-.32.187-.64.294-.974l.28-.96.28-.96.28-.96c.093-.32.173-.64.266-.96.094-.32.174-.64.267-.96.08-.306.173-.626.253-.946.094-.307.174-.627.254-.947.093-.307.173-.627.253-.933.08-.32.16-.627.24-.947.08-.307.16-.613.24-.933l.24-.92c.08-.32.16-.627.227-.934.08-.306.16-.613.226-.92.08-.306.147-.613.227-.92.067-.306.133-.613.213-.92.067-.293.134-.6.214-.906.066-.307.133-.6.2-.907.066-.293.133-.6.2-.893.066-.307.133-.6.2-.907.066-.293.133-.587.2-.893.053-.294.12-.587.186-.88.054-.294.12-.587.187-.894.053-.293.12-.586.173-.866.054-.294.12-.587.174-.88.066-.294.12-.587.173-.867.053-.293.107-.587.173-.867.054-.293.107-.573.16-.866.054-.28.107-.574.16-.854.054-.28.107-.573.147-.853l.16-.84c.053-.28.093-.56.147-.84.04-.28.093-.56.146-.84.04-.28.094-.56.134-.827.053-.28.093-.56.133-.826.053-.28.093-.547.133-.827.04-.267.094-.533.134-.813l.12-.8c.04-.28.08-.547.12-.814l.12-.8.12-.786c.04-.267.066-.534.106-.787.04-.267.067-.52.107-.787.04-.253.067-.52.107-.773.026-.253.066-.52.093-.773.04-.254.067-.507.107-.76.026-.254.053-.507.093-.76.027-.254.053-.507.093-.747l.08-.747c.027-.253.067-.506.094-.746l.08-.734.08-.733c.026-.24.053-.48.066-.72l.08-.707c.027-.24.04-.48.067-.72.027-.226.053-.466.067-.693.026-.24.053-.467.066-.707.027-.226.04-.453.067-.68.013-.24.04-.466.053-.693.027-.227.04-.453.067-.667.013-.226.027-.453.053-.68.014-.213.027-.44.054-.653l.04-.667c.013-.213.04-.426.053-.64l.04-.653.04-.627.04-.64.04-.613.04-.613c.013-.214.027-.414.027-.614l.04-.6c.013-.2.013-.4.026-.586.014-.2.014-.4.027-.587.013-.2.013-.387.027-.587.013-.186.013-.373.026-.56 0-.2.014-.386.014-.573.013-.187.026-.36.026-.547 0-.186.014-.373.014-.546.013-.187.013-.36.026-.547 0-.173 0-.36.014-.533 0-.174.013-.347.013-.52 0-.174 0-.347.013-.52 0-.174 0-.334.014-.507v-.507c0-.16.013-.32.013-.48v-.493c0-.16.013-.32.013-.48V107c0-.133-.013-.266-.013-.4v-.773c-.013-.12-.013-.253-.013-.373s0-.24-.014-.36v-.36c0-.12-.013-.227-.013-.347 0-.107 0-.227-.013-.333v-.334c0-.106-.014-.213-.014-.32 0-.106-.013-.2-.013-.306 0-.107 0-.2-.013-.307v-.28c-.014-.107-.014-.2-.014-.293-.013-.094-.013-.174-.013-.267-.013-.093-.013-.173-.013-.267 0-.08-.014-.173-.014-.253 0-.08-.013-.16-.013-.24 0-.08-.013-.16-.013-.24 0-.067 0-.147-.014-.213 0-.08 0-.147-.013-.214v-.213c-.013-.067-.013-.133-.013-.187-.014-.066-.014-.133-.014-.186-.013-.067-.013-.12-.013-.174 0-.053-.013-.12-.013-.173 0-.053 0-.093-.014-.147v-.146c-.013-.04-.013-.094-.013-.134 0-.04-.013-.08-.013-.12 0-.04 0-.08-.014-.12v-.093c0-.04 0-.067-.013-.093v-.08c0-.027 0-.054-.013-.08v-.107c0-.013-.014-.027-.014-.04v-.04Zm268.667 0v-.64c-.013-.2-.013-.413-.013-.627 0-.213 0-.426-.014-.626 0-.214 0-.427-.013-.627 0-.213-.013-.427-.013-.64-.014-.2-.014-.413-.027-.627 0-.2-.013-.413-.027-.626 0-.2-.013-.414-.026-.614-.014-.213-.014-.426-.027-.626l-.04-.627-.04-.627a9.755 9.755 0 0 0-.053-.613l-.04-.627c-.027-.2-.04-.4-.054-.613-.026-.2-.04-.413-.066-.613-.014-.214-.04-.414-.054-.614-.026-.213-.04-.413-.066-.626-.027-.2-.04-.4-.067-.614-.027-.2-.053-.4-.067-.613l-.08-.613-.08-.6c-.026-.214-.053-.414-.08-.614-.026-.2-.066-.4-.093-.613-.027-.2-.053-.4-.093-.6-.027-.2-.054-.4-.094-.613-.026-.2-.066-.4-.093-.6-.04-.2-.067-.4-.107-.6-.026-.2-.066-.4-.106-.6-.027-.2-.067-.4-.107-.6-.04-.2-.08-.4-.107-.6l-.12-.6-.12-.6-.12-.6a9.517 9.517 0 0 1-.133-.587c-.04-.2-.08-.4-.133-.6-.04-.2-.08-.387-.134-.587-.04-.2-.093-.4-.133-.586-.053-.2-.093-.4-.147-.587-.04-.2-.093-.4-.146-.6a9.256 9.256 0 0 0-.147-.573c-.053-.2-.107-.4-.147-.587-.053-.2-.106-.4-.16-.587-.053-.2-.106-.386-.16-.586-.053-.187-.106-.387-.16-.574-.053-.2-.12-.386-.173-.586l-.16-.574c-.067-.186-.12-.386-.173-.573-.067-.187-.12-.387-.187-.573-.053-.2-.12-.387-.173-.574-.067-.186-.12-.386-.187-.573-.067-.187-.12-.386-.187-.573-.066-.187-.12-.374-.186-.56-.067-.2-.134-.387-.2-.573l-.2-.56-.2-.56c-.067-.2-.134-.387-.2-.574l-.2-.56a9.867 9.867 0 0 1-.214-.56c-.066-.187-.146-.36-.213-.547-.08-.186-.147-.373-.227-.56a9.171 9.171 0 0 0-.213-.56c-.08-.173-.147-.36-.227-.546-.066-.187-.146-.36-.226-.547-.08-.187-.147-.373-.227-.547-.08-.186-.16-.373-.24-.546a6.815 6.815 0 0 0-.227-.547c-.08-.187-.16-.373-.24-.547-.08-.186-.16-.36-.253-.546-.08-.174-.16-.36-.24-.534-.08-.186-.16-.36-.253-.546a16.8 16.8 0 0 0-.254-.534c-.08-.173-.16-.36-.253-.533-.08-.173-.173-.36-.253-.533-.094-.174-.174-.36-.267-.534a9.18 9.18 0 0 0-.267-.52 6.741 6.741 0 0 0-.266-.533c-.094-.173-.174-.347-.267-.52-.093-.187-.187-.36-.28-.533l-.28-.52-.28-.52-.28-.52a17.234 17.234 0 0 0-.28-.507c-.107-.173-.2-.347-.293-.52-.094-.173-.2-.347-.294-.507-.093-.173-.2-.346-.293-.52-.107-.16-.2-.333-.307-.506-.093-.174-.2-.334-.293-.507-.107-.173-.2-.333-.307-.507-.106-.16-.2-.333-.306-.493-.107-.173-.214-.333-.307-.507-.107-.16-.213-.333-.32-.493-.107-.173-.213-.333-.32-.507-.107-.16-.213-.32-.32-.493a15.92 15.92 0 0 1-.32-.493l-.32-.48a6.465 6.465 0 0 0-.333-.493l-.32-.48a36.35 36.35 0 0 1-.334-.494c-.12-.16-.226-.32-.346-.48-.107-.16-.227-.32-.334-.48-.12-.16-.226-.32-.346-.48a6.12 6.12 0 0 0-.347-.467c-.107-.16-.227-.32-.347-.48a5.853 5.853 0 0 0-.346-.466c-.12-.16-.24-.32-.347-.467-.12-.16-.24-.32-.36-.467-.12-.16-.24-.32-.36-.466-.12-.16-.24-.307-.36-.467-.12-.16-.24-.307-.36-.467-.12-.146-.253-.293-.373-.453-.12-.146-.24-.306-.374-.453-.12-.147-.24-.307-.36-.454-.133-.146-.253-.306-.386-.453a49.28 49.28 0 0 0-.374-.453c-.12-.147-.253-.294-.373-.44-.133-.147-.253-.294-.387-.44-.133-.147-.253-.307-.386-.454-.134-.146-.254-.293-.387-.44-.133-.133-.253-.28-.387-.426l-.4-.44c-.133-.147-.253-.294-.386-.427l-.4-.44c-.134-.133-.267-.28-.4-.427-.134-.133-.267-.28-.414-.426-.133-.134-.266-.28-.4-.413-.133-.147-.266-.28-.413-.427-.133-.134-.267-.28-.4-.414l-.413-.413-.414-.413a12.21 12.21 0 0 0-.426-.413l-.414-.414a12.791 12.791 0 0 1-.426-.4c-.147-.133-.28-.267-.427-.4-.147-.133-.28-.28-.427-.4a12.791 12.791 0 0 1-.426-.4l-.44-.4-.427-.387-.44-.4c-.147-.12-.293-.253-.44-.386-.147-.12-.293-.254-.44-.387l-.453-.373c-.147-.134-.294-.253-.44-.387l-.454-.373a5.996 5.996 0 0 0-.453-.374 6.201 6.201 0 0 0-.453-.373c-.147-.12-.294-.253-.454-.373-.146-.12-.306-.24-.453-.36a11.76 11.76 0 0 0-.467-.374c-.146-.12-.306-.24-.453-.36-.16-.12-.32-.24-.467-.36-.16-.12-.32-.226-.466-.346-.16-.12-.32-.24-.467-.36-.16-.12-.32-.227-.48-.347l-.467-.347c-.16-.12-.32-.226-.48-.346-.16-.12-.32-.227-.48-.347-.16-.107-.32-.227-.48-.333-.16-.12-.32-.227-.48-.334-.16-.12-.32-.226-.48-.333-.16-.12-.333-.227-.493-.333-.16-.107-.32-.227-.48-.334a16.267 16.267 0 0 1-.493-.32c-.16-.106-.334-.213-.494-.32-.16-.106-.333-.213-.493-.32a14.544 14.544 0 0 1-.493-.32c-.174-.106-.334-.213-.507-.306-.16-.107-.333-.214-.493-.32-.174-.094-.334-.2-.507-.307-.173-.093-.333-.2-.507-.307-.16-.093-.333-.2-.506-.293-.174-.107-.334-.2-.507-.307a10.305 10.305 0 0 1-.507-.293 10.711 10.711 0 0 1-.52-.293c-.173-.094-.333-.187-.506-.28-.174-.107-.347-.2-.52-.293a301.168 301.168 0 0 1-1.04-.56l-.52-.28-.52-.28a9.908 9.908 0 0 1-.534-.267c-.173-.094-.346-.174-.52-.267-.173-.093-.36-.173-.533-.267-.173-.08-.36-.173-.533-.253-.174-.093-.347-.173-.534-.267-.173-.08-.346-.173-.533-.253-.173-.08-.36-.173-.533-.253-.187-.08-.36-.174-.547-.254-.173-.08-.347-.16-.533-.24-.187-.08-.36-.16-.547-.24-.173-.08-.36-.16-.533-.24-.187-.08-.374-.16-.547-.24-.187-.08-.373-.16-.547-.24a6.739 6.739 0 0 1-.546-.226c-.187-.08-.374-.147-.56-.227-.187-.08-.36-.147-.547-.227-.187-.066-.373-.146-.56-.213a9.255 9.255 0 0 0-.547-.213c-.186-.08-.373-.147-.56-.227l-.56-.2a9.338 9.338 0 0 0-.56-.213 340.897 340.897 0 0 0-1.12-.4c-.2-.067-.386-.134-.573-.2-.187-.067-.373-.134-.56-.187-.2-.067-.387-.133-.573-.2-.187-.053-.374-.12-.574-.187-.186-.053-.373-.12-.573-.186-.187-.054-.373-.12-.573-.174-.187-.053-.374-.12-.574-.173a7.107 7.107 0 0 0-.573-.173c-.187-.067-.387-.12-.573-.174-.2-.053-.387-.106-.587-.16a7.232 7.232 0 0 0-.573-.173c-.2-.053-.387-.107-.587-.16-.187-.053-.387-.093-.573-.147-.2-.053-.4-.106-.587-.16-.2-.053-.4-.093-.587-.146-.2-.054-.4-.094-.586-.147-.2-.04-.4-.093-.587-.133-.2-.054-.4-.094-.6-.147-.187-.04-.387-.093-.587-.133-.2-.04-.4-.094-.586-.134l-.6-.12c-.2-.04-.4-.093-.6-.133-.2-.04-.4-.08-.587-.12-.2-.04-.4-.067-.6-.107l-.6-.12c-.2-.04-.4-.066-.6-.106-.2-.04-.4-.067-.613-.107-.2-.04-.4-.067-.6-.107-.2-.026-.4-.066-.6-.093-.2-.027-.4-.067-.614-.093-.2-.027-.4-.067-.6-.094l-.613-.08c-.2-.026-.4-.066-.6-.093l-.613-.08c-.2-.027-.414-.04-.614-.067l-.613-.08c-.2-.013-.413-.04-.613-.066a9.59 9.59 0 0 1-.614-.067c-.213-.013-.413-.04-.613-.053a9.884 9.884 0 0 0-.627-.054c-.2-.026-.413-.04-.613-.053a9.88 9.88 0 0 0-.627-.053l-.613-.04a9.875 9.875 0 0 0-.627-.054c-.2-.013-.413-.013-.626-.026l-.614-.04c-.213-.014-.426-.014-.626-.027-.214-.013-.414-.013-.627-.027-.213-.013-.413-.013-.627-.026-.213 0-.426-.014-.626-.014-.214 0-.427-.013-.627-.013-.213 0-.427-.013-.64-.013h-2.52c-.213 0-.427.013-.627.013-.213 0-.426.013-.64.013-.2 0-.413.014-.626.014-.2.013-.414.013-.627.026-.2.014-.413.014-.627.027-.2.013-.413.013-.613.027-.213.013-.427.026-.627.04-.213.013-.413.013-.626.026a9.875 9.875 0 0 0-.627.054l-.613.04a9.88 9.88 0 0 0-.627.053c-.2.013-.413.027-.613.053-.2.014-.414.027-.614.054-.213.013-.413.04-.626.053-.2.027-.4.053-.614.067-.2.026-.4.053-.613.066-.2.027-.4.054-.613.08-.2.027-.4.04-.614.067l-.6.08c-.213.027-.413.067-.613.093l-.613.08c-.2.027-.4.067-.6.094-.2.026-.414.066-.614.093-.2.027-.4.067-.6.093-.2.04-.4.067-.6.107-.2.04-.4.067-.6.107-.2.04-.4.066-.6.106l-.6.12c-.2.04-.4.067-.6.107l-.6.12c-.2.04-.4.093-.6.133l-.586.12c-.2.04-.4.094-.6.134-.2.04-.387.093-.587.133-.2.053-.4.093-.587.147-.2.04-.4.093-.6.133-.186.053-.386.093-.586.147-.187.053-.387.093-.587.146-.187.054-.387.107-.573.16-.2.054-.4.094-.587.147-.2.053-.387.107-.587.16-.186.053-.386.107-.573.173-.2.054-.387.107-.587.16-.186.054-.386.107-.573.174-.187.053-.387.106-.573.173-.2.053-.387.12-.574.173-.2.054-.386.12-.573.174-.2.066-.387.133-.573.186a9.576 9.576 0 0 1-.574.187l-.56.2c-.2.053-.386.12-.573.187l-.56.2c-.187.066-.387.133-.573.2l-.56.2a9.338 9.338 0 0 0-.56.213l-.56.2c-.187.08-.374.147-.547.227a9.612 9.612 0 0 0-.56.213c-.187.067-.373.147-.56.213-.173.08-.36.147-.547.227-.186.08-.373.147-.546.227-.187.08-.374.16-.547.226-.187.08-.373.16-.547.24-.186.08-.373.16-.546.24-.187.08-.374.16-.547.24-.187.08-.36.16-.547.24-.173.08-.36.16-.533.24-.187.08-.36.174-.547.254-.173.08-.36.173-.533.253-.173.08-.36.173-.533.253-.174.094-.36.174-.534.267-.173.08-.36.173-.533.253-.173.094-.347.174-.533.267-.174.093-.347.173-.52.267-.174.093-.347.186-.534.266l-.52.28a206.826 206.826 0 0 1-1.04.56l-.52.28c-.173.094-.346.187-.52.294-.16.093-.333.186-.506.28-.174.106-.347.2-.52.293-.16.107-.334.2-.507.293-.173.107-.333.2-.507.307-.173.093-.333.2-.506.293-.174.107-.334.214-.507.307-.16.107-.333.213-.493.307-.174.106-.347.213-.507.32-.173.093-.333.2-.493.306-.174.107-.334.214-.507.32-.16.107-.32.214-.493.32-.16.107-.32.214-.494.32l-.48.32c-.173.107-.333.227-.493.334-.16.106-.32.213-.493.333-.16.107-.32.213-.48.333-.16.107-.32.214-.48.334-.16.106-.32.226-.48.333-.16.12-.32.227-.48.347-.16.12-.32.226-.48.346-.147.12-.307.227-.467.347-.16.12-.32.227-.467.347l-.48.36c-.146.12-.306.226-.466.346-.147.12-.307.24-.454.36-.16.12-.32.24-.466.36-.16.12-.307.24-.467.374-.147.12-.306.24-.453.36l-.454.373c-.16.12-.306.24-.453.373-.147.12-.307.24-.453.374-.147.12-.294.253-.454.373-.146.134-.293.253-.44.387-.146.12-.293.253-.44.373-.16.133-.306.267-.453.387-.147.133-.293.267-.44.387-.147.133-.293.266-.427.4-.146.12-.293.253-.44.386-.146.133-.293.267-.426.4l-.44.4c-.134.12-.28.267-.427.4-.133.133-.28.267-.427.4-.133.133-.28.267-.413.4-.147.133-.28.28-.427.413-.133.134-.28.267-.413.414-.147.133-.28.266-.413.413-.147.133-.28.267-.414.413-.146.134-.279.28-.413.414-.146.146-.28.28-.413.427-.134.133-.267.28-.4.413-.134.146-.267.293-.414.426-.133.147-.266.294-.4.427-.133.147-.266.293-.386.44-.134.133-.267.28-.4.427l-.4.44c-.12.146-.253.293-.387.426-.133.147-.253.294-.387.44-.133.147-.253.307-.386.454-.12.146-.254.293-.387.44-.12.147-.253.293-.373.44-.12.16-.254.306-.374.453-.133.147-.253.307-.373.453-.133.147-.253.307-.373.454-.134.146-.254.306-.374.453-.12.16-.24.307-.36.453-.133.16-.253.307-.373.467-.12.16-.24.307-.36.467-.12.146-.24.306-.36.466-.12.147-.24.307-.347.467-.12.147-.24.307-.36.467-.12.146-.226.306-.346.466-.12.16-.24.32-.347.48a6.12 6.12 0 0 0-.347.467c-.12.16-.226.32-.346.48-.107.16-.227.32-.334.48-.12.16-.226.32-.333.48-.12.16-.227.32-.333.494-.12.16-.227.32-.334.48-.106.16-.226.32-.333.493l-.32.48a15.92 15.92 0 0 1-.32.493c-.107.174-.213.333-.32.493-.107.174-.213.334-.32.507-.107.16-.213.333-.307.493-.106.174-.213.334-.32.507-.093.16-.2.333-.306.493-.094.174-.2.334-.307.507-.093.173-.2.333-.293.507-.107.173-.2.346-.307.506-.093.174-.187.347-.293.52-.094.16-.187.334-.294.507l-.28.52c-.106.16-.2.333-.293.507l-.28.52-.28.52-.28.52c-.093.173-.187.346-.28.533-.08.173-.173.347-.267.52-.093.173-.173.347-.266.533-.094.174-.174.347-.267.52-.093.174-.173.36-.267.534-.08.173-.173.36-.253.533-.08.173-.173.36-.253.533a16.8 16.8 0 0 0-.254.534c-.08.186-.173.36-.253.546-.08.174-.16.36-.24.534-.08.186-.16.36-.253.546-.08.174-.16.36-.24.547-.067.173-.147.36-.227.547-.08.173-.16.36-.24.546-.08.174-.147.36-.227.547-.08.187-.146.36-.226.547-.08.186-.147.373-.227.546-.067.187-.147.374-.213.56-.08.187-.147.374-.227.56-.067.187-.133.36-.213.547l-.2.56c-.08.187-.147.373-.214.56-.066.187-.133.373-.2.573l-.2.56-.2.56c-.066.187-.133.374-.2.574-.053.186-.12.373-.186.56-.067.186-.12.386-.187.573-.067.187-.12.387-.187.573-.053.187-.12.374-.173.574-.067.186-.12.386-.173.573-.067.187-.12.387-.174.573-.066.187-.12.387-.173.574-.053.2-.107.386-.173.586-.054.187-.107.387-.16.574-.054.2-.107.386-.16.586a7.255 7.255 0 0 0-.147.587 35.22 35.22 0 0 0-.16.587c-.053.186-.093.386-.147.573-.053.2-.093.4-.146.6-.054.187-.094.387-.147.587-.04.186-.093.386-.133.586-.04.2-.094.387-.134.587-.04.2-.093.4-.133.6l-.12.587c-.053.2-.093.4-.133.6l-.12.6c-.04.2-.08.4-.107.6l-.12.6c-.04.2-.067.4-.107.6-.04.2-.066.4-.106.6-.04.2-.067.4-.107.6-.027.2-.067.4-.093.6-.027.213-.067.413-.094.613-.026.2-.066.4-.093.6l-.08.613c-.04.2-.067.4-.093.614l-.08.6c-.027.213-.054.413-.067.613l-.08.613c-.027.214-.04.414-.067.614-.026.213-.04.413-.066.626-.014.2-.04.4-.054.614-.026.2-.04.413-.066.613-.014.213-.027.413-.054.613l-.04.627c-.013.2-.04.413-.053.613l-.04.627-.04.627c0 .2-.013.413-.027.626-.013.2-.026.414-.026.614a9.774 9.774 0 0 0-.027.626c-.013.214-.013.427-.027.627 0 .213-.013.427-.013.64-.013.2-.013.413-.013.627-.014.2-.014.413-.014.626v.627c-.013.213-.013.427-.013.64 0 .2 0 .413.013.627v.626c0 .214 0 .427.014.64 0 .2 0 .414.013.627 0 .213.013.413.013.627.014.213.014.413.027.626 0 .214.013.414.027.627 0 .2.013.413.026.627.014.2.027.413.027.626l.04.614.04.626c.013.2.04.414.053.614l.04.626c.027.2.04.414.054.614.026.213.04.413.066.626.014.2.04.4.054.614.026.2.04.413.066.613.027.2.04.413.067.613l.08.614c.013.2.04.413.067.613l.08.613c.026.2.053.4.093.6l.08.614c.027.2.067.4.093.613.027.2.067.4.094.6.026.2.066.4.093.6.04.2.067.4.107.613.04.2.066.4.106.6.04.2.067.4.107.6l.12.6c.027.2.067.4.107.6l.12.587c.04.2.08.4.133.6l.12.6c.04.187.093.387.133.587.04.2.094.4.134.586.04.2.093.4.133.6.053.187.093.387.147.587.053.2.093.387.146.587.054.2.094.386.147.586.053.187.107.387.16.587.04.187.093.387.147.573.053.2.106.4.16.587.053.2.106.387.16.587.066.186.12.386.173.573.053.187.107.387.173.573.054.2.107.387.174.574.053.2.106.386.173.586.053.187.12.374.173.574.067.186.12.373.187.56.067.2.12.386.187.573.066.187.133.387.186.573l.2.56c.067.187.134.374.2.574l.2.56.2.56c.067.186.134.373.214.56l.2.56c.08.186.146.373.213.56.08.186.147.373.227.546.066.187.146.374.213.56.08.187.147.374.227.547.08.187.146.373.226.56.08.173.147.36.227.547.08.173.16.36.24.546.08.174.16.36.227.547.08.173.16.36.24.533.093.187.173.374.253.547.08.187.16.36.24.547.08.173.173.36.253.533.08.173.16.36.254.533.08.187.173.36.253.534.08.186.173.36.253.533.094.187.174.36.267.533.093.174.173.36.267.534.093.173.173.346.266.52.094.186.187.36.267.533l.28.52.28.52.28.52.28.52c.093.173.187.347.293.52.094.173.187.347.28.507.107.173.2.346.294.52.106.173.2.333.293.506.107.174.2.347.307.507.093.173.2.347.293.507.107.173.213.333.307.506.106.174.213.334.306.507.107.16.214.333.32.493.094.174.2.334.307.507.107.16.213.333.32.493.107.16.213.334.32.494.107.16.213.333.32.493.107.16.213.333.32.493.107.16.227.32.333.48.107.174.214.334.334.494.106.16.213.32.333.48.107.16.213.32.333.48.107.16.227.32.334.48.12.16.226.32.346.48.107.16.227.32.347.48.107.16.227.306.347.466.12.16.226.32.346.48.12.147.24.307.36.467.107.16.227.307.347.467.12.146.24.306.36.466.12.147.24.307.36.454.12.16.24.306.373.466.12.147.24.307.36.454.12.16.24.306.374.453.12.16.24.307.373.453.12.16.24.307.373.454.12.16.254.306.374.453.12.147.253.293.373.44.133.16.267.307.387.453.133.147.253.294.386.44.134.147.254.294.387.44.134.147.267.294.387.44.133.147.266.28.4.427l.4.44c.12.147.253.28.386.427.134.146.267.28.4.426.147.147.28.28.414.427.133.147.266.28.4.427.133.133.267.28.413.413.134.147.267.28.413.427l.414.413.413.413c.133.134.28.267.413.414.147.133.28.266.427.4.133.133.28.266.413.413.147.133.294.267.427.4.147.133.293.267.427.4l.44.4c.133.133.28.267.426.387l.44.4c.134.133.28.253.427.386.147.134.293.267.44.387.147.133.293.267.453.387.147.133.294.253.44.386.147.12.294.254.44.374.16.133.307.253.454.386.146.12.306.24.453.374l.453.373c.147.12.307.24.454.36l.453.373c.16.12.307.24.467.36.146.12.306.24.466.36.147.12.307.24.454.36.16.12.32.24.466.36.16.12.32.227.48.347.147.12.307.24.467.347.16.12.32.24.467.36.16.106.32.226.48.333.16.12.32.24.48.347.16.12.32.226.48.333.16.12.32.227.48.347.16.106.32.213.48.333.173.107.333.213.493.32.16.12.32.227.493.333l.48.32c.174.12.334.227.494.334.173.106.333.213.493.32.173.093.333.2.507.306.16.107.32.214.493.32.16.107.333.2.507.307.16.107.333.2.493.307.173.106.333.2.507.306.173.094.333.2.506.307.174.093.334.187.507.293.173.094.347.2.507.294.173.093.346.2.52.293.173.093.346.2.506.293a286.109 286.109 0 0 0 1.04.56c.174.107.347.2.52.294.174.093.347.173.52.266l.52.28c.187.094.36.187.534.267.173.093.346.187.52.267.186.093.36.186.533.266.173.094.36.174.533.267.174.08.36.173.534.253.173.094.36.174.533.254.173.093.36.173.533.253.187.093.36.173.547.253.173.08.36.16.533.254.187.08.36.16.547.24.173.08.36.16.547.24.173.08.36.16.546.24.174.066.36.146.547.226.173.08.36.16.547.227.173.08.36.16.546.227.187.08.374.16.547.226.187.08.373.147.56.227.187.067.373.147.56.213.173.067.36.147.547.214.186.066.373.133.56.213l.56.2c.186.067.373.133.56.213.186.067.386.134.573.2.187.067.373.12.56.187.187.067.373.133.573.2.187.067.374.12.56.187.187.066.387.133.574.186.186.067.373.12.573.187.187.053.373.12.573.173.187.067.374.12.574.187.186.053.386.107.573.173.187.054.387.107.573.16.2.067.387.12.587.174.187.053.387.106.573.16.2.053.387.106.587.16.187.053.387.106.587.16.186.053.386.093.573.146.2.054.4.107.587.147.2.053.4.107.586.147.2.053.4.093.6.146.187.04.387.094.587.134.2.053.387.093.587.133.2.053.4.093.6.133.2.04.386.094.586.134l.6.12.6.12.6.12c.2.04.4.066.6.106.2.04.4.08.6.107.2.04.4.08.6.107.2.04.4.066.6.106.2.027.4.067.6.094.2.04.414.066.614.093.2.04.4.067.6.093.2.027.413.067.613.094l.613.08.6.08c.214.026.414.053.614.08.213.026.413.04.613.066.213.027.413.054.613.067.214.027.414.04.614.067.213.026.413.04.626.066.2.014.414.027.614.054.2.013.413.04.613.053l.627.04c.2.027.413.04.613.053l.627.04.626.04c.2.014.414.027.627.027l.613.04c.214 0 .427.013.627.013.213.014.427.027.627.027.213.013.426.013.626.013.214.014.427.014.64.027h.627c.213 0 .413.013.627.013h1.546c.04 0 .08-.013.12-.013h.8c.04 0 .067-.013.107-.013h.453c.04 0 .08-.014.12-.014h.347c.027 0 .067 0 .107-.013h.346c.04 0 .067-.013.107-.013h.227c.04 0 .08-.014.12-.014h.226c.04 0 .067-.013.107-.013h.227c.04-.013.08-.013.12-.013h.106c.04 0 .08 0 .12-.014h.227c.04-.013.067-.013.107-.013h.12c.026 0 .066-.013.106-.013h.12c.027 0 .067-.014.107-.014h.12c.027 0 .067 0 .107-.013h.106c.04 0 .08-.013.12-.013h.107c.04 0 .08-.014.12-.014h.107c.04 0 .08-.013.12-.013h.106c.04-.013.08-.013.12-.013.027 0 .067 0 .107-.014h.12c.027 0 .067-.013.107-.013h.106c.04-.013.08-.013.12-.013.04 0 .067 0 .107-.014h.12c.027 0 .067-.013.107-.013.04 0 .08 0 .12-.013h.106c.04 0 .08-.014.107-.014.04 0 .08 0 .12-.013h.107c.04 0 .08-.013.12-.013.026 0 .066 0 .106-.014h.107c.04-.013.08-.013.12-.013.04 0 .067-.013.107-.013.04 0 .08 0 .12-.014h.106c.04-.013.08-.013.107-.013.04 0 .08-.013.12-.013.04 0 .067 0 .107-.014.04 0 .08 0 .106-.013h.12c.04-.013.067-.013.107-.013.04 0 .08-.014.12-.014.027 0 .067-.013.107-.013.04 0 .08 0 .106-.013.04 0 .08 0 .12-.014h.107c.04-.013.08-.013.107-.013.04-.013.08-.013.12-.013.04 0 .066-.014.106-.014.04 0 .08-.013.107-.013.04 0 .08-.013.12-.013.04 0 .067-.014.107-.014.04 0 .08 0 .106-.013.04 0 .08 0 .12-.013.04 0 .067 0 .107-.014.04 0 .08 0 .107-.013.04 0 .08 0 .12-.013.04 0 .066 0 .106-.014.04 0 .08 0 .107-.013.04 0 .08 0 .12-.013.04 0 .067 0 .107-.014.04 0 .08 0 .106-.013.04 0 .08 0 .12-.013.027 0 .067 0 .107-.014.04 0 .08 0 .107-.013.04 0 .08 0 .12-.013.026 0 .066 0 .106-.014.04 0 .067-.013.107-.013.04 0 .08-.013.12-.013.027 0 .067-.014.107-.014.04 0 .066-.013.106-.013.04-.013.08-.013.107-.013.04-.014.08-.014.12-.014.027-.013.067-.013.107-.026.04 0 .066 0 .106-.014.04 0 .08 0 .107-.013.04 0 .08-.013.12-.013.04 0 .067-.014.107-.014.04-.013.08-.013.106-.013.04-.013.08-.013.12-.013.027-.014.067-.014.107-.027.04 0 .067 0 .107-.013.04 0 .08-.014.106-.014.04 0 .08-.013.12-.013.027-.013.067-.013.107-.027.04 0 .067 0 .107-.013.04 0 .08-.013.106-.013.04 0 .08-.014.12-.014.027-.013.067-.013.107-.026.027 0 .067 0 .107-.014.04 0 .066-.013.106-.013.04-.013.08-.013.107-.013.04-.014.08-.014.12-.027.027 0 .067-.013.107-.013.04 0 .066-.014.106-.014.04-.013.08-.013.107-.026.04 0 .08-.014.12-.014.027 0 .067-.013.107-.013.026-.013.066-.013.106-.027.04 0 .067-.013.107-.013.04-.013.08-.013.107-.013.04-.014.08-.014.12-.027.026 0 .066-.013.106-.013.027-.014.067-.014.107-.027.04 0 .067-.013.107-.013.04-.014.08-.014.106-.027.04 0 .08 0 .107-.013.04 0 .08-.014.12-.014.027-.013.067-.013.107-.026.04 0 .066-.014.106-.014.04-.013.067-.013.107-.026.04 0 .08-.014.107-.014.04-.013.08-.013.106-.026.04 0 .08-.014.12-.014.027-.013.067-.013.107-.026.027 0 .067-.014.107-.014.04-.013.066-.013.106-.026.04 0 .067-.014.107-.014.04-.013.08-.013.107-.026.04 0 .08-.014.106-.014.04-.013.08-.013.12-.026.027 0 .067-.014.107-.014a.26.26 0 0 1 .107-.026c.04-.014.066-.014.106-.027.04 0 .067-.013.107-.013.04-.014.08-.014.107-.027.04 0 .08-.013.106-.013a.388.388 0 0 1 .107-.027c.04-.013.08-.013.12-.027.027 0 .067-.013.107-.013.026-.013.066-.013.106-.027.04-.013.067-.013.107-.026.04 0 .067-.014.107-.014.04-.013.066-.013.106-.026.04-.014.067-.014.107-.027.04 0 .08-.013.107-.013.04-.014.08-.014.106-.027.04-.013.08-.013.107-.027.04 0 .08-.013.12-.013a.26.26 0 0 1 .107-.027c.026-.013.066-.013.106-.026.027 0 .067-.014.107-.027.027 0 .067-.013.107-.013a.236.236 0 0 1 .106-.027c.04-.013.067-.013.107-.027.04-.013.067-.013.107-.026.04 0 .066-.014.106-.014.04-.013.067-.026.107-.026.04-.014.067-.014.107-.027.04-.013.066-.013.106-.027a.26.26 0 0 0 .107-.026.26.26 0 0 0 .107-.027c.04 0 .08-.013.106-.013a.388.388 0 0 1 .107-.027c.04-.013.08-.013.107-.027.04-.013.08-.013.106-.026.04-.014.08-.014.107-.027.04 0 .08-.013.107-.027a.25.25 0 0 0 .106-.026c.04 0 .08-.014.107-.014a.42.42 0 0 1 .107-.026.391.391 0 0 1 .106-.027c.04-.013.08-.027.107-.027.04-.013.08-.026.107-.026.04-.014.08-.014.106-.027.04-.013.08-.013.107-.027.04-.013.08-.013.107-.026.04-.014.08-.014.106-.027.04-.013.08-.013.107-.027.04-.013.08-.013.107-.026.04-.014.08-.014.106-.027.04-.013.08-.013.107-.027.04-.013.08-.013.107-.026.04-.014.08-.014.106-.027.04-.013.067-.013.107-.027.04-.013.067-.013.107-.026.04-.014.066-.014.106-.027.04-.013.067-.013.107-.027.04-.013.067-.013.107-.026.04-.014.066-.027.106-.027.04-.013.067-.027.107-.027a.26.26 0 0 1 .107-.026c.026-.014.066-.027.106-.04.027 0 .067-.014.107-.027a.388.388 0 0 0 .107-.027.256.256 0 0 0 .093-.026c.04-.014.08-.014.107-.027.04-.013.08-.013.106-.027a.42.42 0 0 1 .107-.026c.04-.014.067-.027.107-.027.04-.013.066-.027.106-.04.04 0 .067-.013.107-.027.04 0 .067-.013.107-.026.026-.014.066-.014.106-.027a.26.26 0 0 1 .107-.027.26.26 0 0 1 .107-.026c.026-.014.066-.027.093-.04a.26.26 0 0 0 .107-.027c.04-.013.08-.013.106-.027.04-.013.067-.026.107-.026.04-.014.067-.027.107-.04.04 0 .066-.014.106-.027.027-.013.067-.013.107-.027a.256.256 0 0 1 .093-.026c.04-.014.08-.027.107-.04a.26.26 0 0 0 .107-.027c.04-.013.066-.013.106-.027.04-.013.067-.026.107-.04a.42.42 0 0 0 .107-.026c.026-.014.066-.014.106-.027.027-.013.067-.027.094-.04.04 0 .08-.013.106-.027.04-.013.067-.013.107-.026-.013.213-.04.44-.067.653-.013.227-.04.44-.053.653-.027.227-.053.44-.067.654-.026.226-.053.44-.066.653l-.08.653c-.027.214-.054.427-.067.654l-.08.64-.08.64-.08.64c-.027.213-.053.426-.093.64l-.08.64c-.027.2-.067.413-.094.626a8.423 8.423 0 0 1-.093.627c-.027.213-.053.427-.093.64-.027.2-.067.413-.094.627-.026.2-.066.413-.093.613-.04.213-.067.427-.107.627a8.06 8.06 0 0 1-.106.613c-.027.213-.067.413-.107.627-.027.2-.067.413-.107.613-.026.2-.066.413-.106.613-.04.2-.08.4-.107.614l-.12.6-.12.613-.12.6-.12.6-.12.6-.12.6c-.04.187-.093.387-.133.587-.04.2-.08.4-.134.6-.04.186-.08.386-.12.586-.053.187-.093.387-.133.587a7.767 7.767 0 0 0-.133.587c-.054.186-.094.386-.147.573-.04.2-.093.387-.133.587-.054.186-.094.386-.147.573-.04.2-.093.387-.133.573-.054.2-.107.387-.147.574-.053.2-.107.386-.147.573-.053.187-.106.373-.146.573l-.16.56c-.04.187-.094.374-.147.56-.053.187-.107.374-.147.56a91.46 91.46 0 0 1-.16.56 91.46 91.46 0 0 1-.16.56 91.46 91.46 0 0 1-.16.56c-.053.174-.106.36-.16.547-.053.187-.106.373-.16.547-.053.186-.106.373-.16.546-.053.187-.106.374-.16.547-.066.187-.12.36-.173.547-.053.173-.107.36-.173.533-.054.187-.107.36-.16.547-.054.173-.12.346-.174.533-.053.173-.12.347-.173.533-.053.174-.12.347-.173.52-.054.187-.12.36-.174.534-.066.173-.12.346-.173.52-.067.173-.12.36-.187.533-.053.173-.12.347-.173.52-.067.173-.12.347-.187.507-.053.173-.12.346-.173.52a8.1 8.1 0 0 0-.187.52c-.066.16-.12.333-.186.506-.067.174-.12.334-.187.507s-.12.333-.187.507c-.066.173-.12.333-.186.506-.067.16-.12.334-.187.494-.067.173-.133.333-.187.506-.066.16-.133.334-.2.494-.066.16-.12.333-.186.493-.067.16-.134.333-.2.493-.067.16-.12.32-.187.494l-.2.48-.2.48c-.067.173-.133.333-.2.493-.067.16-.12.32-.187.48-.066.16-.133.307-.2.467l-.2.48c-.066.16-.146.32-.213.466l-.2.48c-.067.147-.133.307-.2.467-.067.147-.133.307-.2.453-.067.16-.133.32-.213.467-.067.16-.134.307-.2.467a12.44 12.44 0 0 0-.2.453c-.08.147-.147.307-.214.453-.066.147-.133.307-.2.454-.08.146-.146.293-.213.453-.067.147-.147.293-.213.44l-.2.44c-.08.16-.147.307-.214.453-.066.147-.146.294-.213.44-.067.147-.147.28-.213.427a6.828 6.828 0 0 1-.214.44 4.144 4.144 0 0 1-.213.427c-.067.146-.133.293-.213.44-.067.133-.134.28-.214.426-.066.134-.133.28-.213.427-.067.133-.133.28-.213.413-.067.147-.134.28-.214.427-.066.133-.146.28-.213.413-.067.134-.147.28-.213.414-.067.133-.147.28-.214.413-.08.133-.146.28-.213.413-.08.134-.147.267-.227.4-.066.134-.146.28-.213.414-.067.133-.147.266-.213.4a5.75 5.75 0 0 0-.214.4c-.08.133-.146.266-.226.4-.067.12-.147.253-.214.386-.08.134-.146.267-.213.4-.08.12-.147.254-.227.387-.066.12-.146.253-.213.387-.067.12-.147.253-.213.386-.08.12-.147.254-.227.374-.067.133-.147.253-.213.386-.08.12-.147.254-.214.374-.08.12-.146.253-.226.373-.067.12-.147.253-.214.373-.08.12-.146.24-.213.374-.08.12-.147.24-.227.36-.066.12-.146.24-.213.36-.08.12-.147.24-.213.373-.08.107-.147.227-.227.347-.067.12-.147.24-.213.36-.067.12-.147.24-.214.36-.08.106-.146.226-.226.346-.067.12-.134.227-.214.347-.066.12-.146.227-.213.347-.067.12-.147.226-.213.346-.08.107-.147.227-.214.334-.08.12-.146.226-.226.346-.067.107-.134.227-.214.334-.066.106-.146.226-.213.333-.067.107-.147.213-.213.333-.067.107-.147.214-.214.32-.066.107-.146.227-.213.334-.067.106-.147.213-.213.32-.067.106-.147.213-.214.32-.066.106-.146.213-.213.32-.067.106-.133.213-.213.306-.067.107-.134.214-.214.32-.066.107-.133.2-.2.307-.08.107-.146.2-.213.307-.067.106-.147.2-.213.306-.067.094-.134.2-.2.294-.08.106-.147.2-.214.306-.066.094-.133.2-.2.294-.08.106-.146.2-.213.293-.067.107-.133.2-.2.293-.08.094-.147.2-.213.294l-.2.28-.2.28a4.259 4.259 0 0 1-.214.28l-.2.28-.2.28a4.287 4.287 0 0 1-.2.266l-.2.28c-.066.08-.133.174-.2.267-.053.08-.12.173-.186.267-.067.08-.134.173-.2.253-.067.093-.134.173-.2.267-.067.08-.12.173-.187.253-.067.08-.133.173-.2.253-.067.08-.12.174-.187.254-.066.08-.133.16-.186.253l-.2.24c-.054.08-.12.16-.187.24-.053.08-.12.16-.187.24-.066.08-.12.16-.186.24-.054.08-.12.16-.187.24-.053.08-.12.16-.173.227-.067.08-.134.16-.187.24-.067.066-.12.146-.187.226-.053.067-.12.147-.173.227-.067.067-.12.147-.187.213-.053.08-.12.147-.173.227-.053.067-.12.133-.173.213-.067.067-.12.147-.174.214-.066.066-.12.146-.173.213-.067.067-.12.133-.173.2-.054.08-.12.147-.174.213l-.16.2a2.54 2.54 0 0 0-.173.2l-.16.2c-.067.067-.12.134-.173.2-.054.054-.107.12-.16.187-.054.067-.107.12-.16.187-.054.066-.107.133-.16.186-.054.067-.107.12-.16.187-.054.067-.107.12-.147.187-.053.053-.107.12-.16.173-.053.053-.107.12-.147.173-.053.067-.106.12-.16.174-.053.053-.093.12-.146.173-.054.053-.094.107-.147.173-.053.054-.093.107-.147.16-.053.054-.093.107-.146.16-.04.054-.094.107-.134.16-.053.054-.093.107-.146.16-.04.054-.094.094-.134.147-.053.053-.093.107-.133.16a.692.692 0 0 0-.133.147c-.054.04-.094.093-.134.146-.053.04-.093.094-.133.134-.04.053-.093.093-.133.146-.04.04-.08.094-.12.134-.04.053-.08.093-.12.133l-.134.133c-.04.04-.08.094-.12.134-.04.04-.08.08-.106.12-.04.04-.08.08-.12.133l-.12.12a.419.419 0 0 1-.107.107c-.04.04-.067.08-.107.12-.04.04-.066.08-.106.106-.04.04-.067.08-.107.12-.04.027-.067.067-.107.107a4.077 4.077 0 0 1-.093.093c-.04.04-.067.08-.093.107a.635.635 0 0 1-.107.093.683.683 0 0 1-.093.107c-.027.027-.054.053-.08.093-.04.027-.067.054-.094.08-.026.027-.053.067-.08.094-.026.026-.066.053-.093.08l-.08.08a.343.343 0 0 0-.067.08l-.08.08c-.026.026-.053.04-.08.066a.337.337 0 0 1-.066.08c-.027.014-.04.04-.067.067-.027.013-.04.04-.067.053-.013.027-.04.04-.066.067-.014.027-.04.04-.054.053-.026.027-.04.04-.053.067a.102.102 0 0 0-.053.053c-.027.014-.04.027-.054.04l-.053.054-.04.04a.159.159 0 0 0-.053.04.755.755 0 0 0-.04.04.755.755 0 0 0-.04.04c0 .013-.014.026-.027.026l-.04.04-.027.027-.026.027-.014.013-.026.027s-.014 0-.014.013c-.013 0-.013 0-.013.013-.013 0-.013 0-.013.014h-.014v.013h-.013v.013h-.013v.014c-.014 0-.014 0-.014.013h-.013v.013s-.013 0-.013.014l-.014.013-.013.013-.013.014c0 .013-.014.013-.014.013 0 .013-.013.013-.013.027 0 0-.013 0-.013.013l-.014.013c-.013 0-.013.014-.013.014l-.027.026-.013.014-.013.013c0 .013-.014.013-.014.027-.013 0-.013.013-.026.013 0 .013-.014.027-.014.027-.013.013-.013.013-.013.026-.013 0-.013.014-.027.027l-.013.013-.027.027-.026.027c0 .013-.014.013-.014.026l-.026.027c0 .013-.014.013-.027.027 0 .013-.013.013-.013.026l-.027.027c-.013.013-.013.027-.027.04-.013 0-.013.013-.026.027 0 .013-.014.013-.027.026a.028.028 0 0 1-.027.027c0 .013-.013.027-.026.04 0 .013-.014.013-.027.027 0 .013-.013.026-.027.04a.028.028 0 0 1-.026.026c0 .014-.014.027-.027.04 0 .014-.013.027-.027.04l-.026.027c-.014.013-.014.027-.027.04-.013.013-.027.027-.027.04l-.04.04c0 .013-.013.027-.026.04-.014.013-.014.027-.027.04-.013.013-.027.027-.027.04l-.04.04c0 .013-.013.027-.026.04-.014.013-.027.027-.027.04l-.04.04c-.013.013-.013.027-.027.04-.013.013-.026.04-.04.053 0 .014-.013.027-.026.04l-.04.04c0 .014-.014.04-.027.054l-.04.04c0 .013-.013.04-.027.053l-.04.04c0 .013-.013.04-.026.053a.176.176 0 0 0-.04.054c-.014.013-.014.026-.027.04-.013.013-.027.04-.04.053a.187.187 0 0 0-.04.053c0 .014-.013.027-.027.04a.176.176 0 0 1-.04.054.17.17 0 0 1-.04.053c0 .027-.013.04-.026.053-.014.014-.027.04-.04.054-.014.013-.027.04-.04.053 0 .013-.014.04-.027.053-.013.027-.027.04-.04.054a.187.187 0 0 1-.04.053c-.013.027-.027.04-.027.067a.19.19 0 0 0-.04.053c-.013.013-.026.04-.04.053-.013.014-.026.04-.04.054-.013.026-.026.04-.026.066-.014.014-.027.04-.04.054a.207.207 0 0 1-.04.053c-.014.027-.027.04-.04.067-.014.013-.027.04-.04.053 0 .027-.014.04-.027.067-.013.013-.027.04-.04.053a.302.302 0 0 1-.04.067c-.013.026-.027.04-.04.066-.013.014-.013.04-.027.054-.013.026-.026.04-.04.066-.013.027-.026.04-.04.067-.013.013-.026.04-.04.067-.013.013-.026.04-.04.053a.105.105 0 0 1-.026.067c-.014.026-.027.04-.04.066-.014.027-.027.04-.04.067-.014.027-.027.04-.04.067 0 .026-.014.04-.027.066-.013.027-.027.04-.04.067-.013.027-.027.04-.04.067-.013.026-.027.04-.04.066 0 .027-.013.04-.027.067a.268.268 0 0 1-.04.067c-.013.026-.026.053-.04.066-.013.027-.013.054-.026.08a.268.268 0 0 0-.04.067c-.014.027-.027.04-.04.067-.014.026-.014.053-.027.066l-.04.08a.302.302 0 0 0-.04.067.1.1 0 0 1-.027.067l-.04.08c-.013.026-.026.04-.026.066l-.04.08c-.014.027-.027.04-.04.067 0 .027-.014.053-.027.08-.013.027-.027.04-.04.067a.186.186 0 0 1-.027.08l-.04.08c0 .013-.013.04-.026.066a.186.186 0 0 0-.027.08l-.04.08c-.013.014-.013.04-.027.067a2.982 2.982 0 0 1-.04.08c0 .027-.013.053-.026.08-.014.027-.014.053-.027.08a.28.28 0 0 0-.04.067.186.186 0 0 1-.027.08c-.013.026-.013.053-.026.08a.177.177 0 0 0-.027.08l-.04.08a.186.186 0 0 1-.027.08c0 .026-.013.053-.026.08-.014.026-.014.053-.027.08-.013.026-.013.053-.027.08-.013.026-.013.053-.026.08-.014.026-.014.053-.027.08-.013.026-.013.053-.027.08-.013.026-.013.053-.026.08-.014.026-.014.053-.027.08-.013.026-.013.053-.027.08 0 .026-.013.053-.026.08a.258.258 0 0 1-.027.093c0 .027-.013.053-.013.08-.014.027-.014.053-.027.08-.013.027-.013.053-.027.08 0 .027-.013.053-.013.08-.013.04-.027.067-.027.093-.013.027-.013.054-.026.08 0 .027-.014.054-.014.08-.013.027-.013.067-.026.094 0 .026-.014.053-.014.08-.013.026-.013.053-.026.08 0 .04-.014.066-.014.093-.013.027-.013.053-.013.08-.013.027-.013.053-.027.093 0 .027-.013.054-.013.08 0 .027-.013.054-.013.094-.014.026-.014.053-.014.08-.013.026-.013.053-.026.08 0 .04 0 .066-.014.093 0 .027 0 .053-.013.08 0 .04 0 .067-.013.093 0 .027 0 .054-.014.094 0 .026 0 .053-.013.08v.093c-.013.027-.013.053-.013.08 0 .027-.014.067-.014.093 0 .027 0 .054-.013.08v.094c-.013.026-.013.066-.013.093v.08c-.014.04-.014.067-.014.093v.094c-.013.026-.013.053-.013.08v.186c0 .027-.013.054-.013.094v.533c0 .027 0 .067.013.093v.174c0 .04 0 .066.013.093v.187c.014.026.014.053.014.093 0 .027 0 .053.013.08v.093c.013.04.013.067.013.094 0 .026.014.066.014.093 0 .027.013.067.013.093 0 .027.013.054.013.094 0 .026.014.053.014.093 0 .027.013.053.013.08 0 .04.013.067.013.093.014.04.014.067.027.094 0 .026 0 .066.013.093 0 .027.014.067.014.093.013.027.013.067.026.094 0 .026.014.053.014.093.013.027.013.053.026.093.014.027.014.054.027.08 0 .04.013.067.013.094.014.04.027.066.027.093.013.04.027.067.027.093a.255.255 0 0 1 .026.094.23.23 0 0 1 .027.093c.013.027.027.067.04.093 0 .027.013.054.027.094.013.026.013.053.026.093a.561.561 0 0 1 .04.093c0 .027.014.054.027.08.013.04.027.067.04.094 0 .04.013.066.027.093.013.04.026.067.04.093.013.027.026.067.04.094.013.026.026.066.04.093.013.027.026.067.04.093a.828.828 0 0 1 .04.094.734.734 0 0 1 .04.093l.04.08c.013.04.026.067.053.093.013.04.027.067.04.094.013.04.027.066.053.093.014.027.027.067.04.093.014.027.04.067.054.094.013.026.026.053.053.093a.775.775 0 0 0 .053.093c.014.027.027.054.054.08.013.04.026.067.053.094.013.026.027.066.053.093.014.027.04.067.054.093.013.027.04.054.053.094.027.026.04.053.067.08.013.04.04.066.053.093.027.04.04.067.067.093.026.027.04.067.066.094.014.026.04.053.067.093.013.027.04.053.067.08.013.04.04.067.066.093a.42.42 0 0 0 .067.094c.013.026.04.053.067.093.026.027.04.053.066.08.027.04.054.067.08.093a.42.42 0 0 0 .067.094.549.549 0 0 1 .08.093.365.365 0 0 1 .067.08c.026.027.053.053.08.093l.08.08c.013.027.04.054.066.08.027.027.054.067.08.094l.08.08a.39.39 0 0 0 .067.08l.08.08a.343.343 0 0 1 .067.08l.08.08.08.08c.026.013.053.04.066.066l.08.08a.36.36 0 0 0 .08.067c.027.027.054.053.067.08a.365.365 0 0 0 .08.067l.08.08c.027.026.053.04.067.066.026.027.053.04.08.067a.343.343 0 0 0 .08.067l.066.066a.36.36 0 0 0 .08.067.39.39 0 0 0 .08.067c.027.026.054.04.08.066.014.027.04.04.067.067.027.013.053.04.08.053.027.027.053.054.08.067l.067.067c.026.013.053.04.08.053.026.027.053.04.08.067.026.013.053.026.066.053.027.013.054.04.08.053.027.027.054.04.08.054a.3.3 0 0 0 .08.053c.014.027.04.04.067.067a.264.264 0 0 1 .08.053l.08.04c.027.027.04.04.067.053.026.027.053.04.08.054.026.013.053.04.08.053.026.013.04.027.066.053l.08.04c.027.014.054.04.08.054a.251.251 0 0 1 .067.04c.027.013.053.04.08.053l.08.04a.302.302 0 0 1 .067.04.3.3 0 0 1 .08.053l.08.04c.026.014.053.027.066.04l.08.04.08.04c.027.014.04.027.067.04l.08.04.08.04c.027 0 .04.014.067.027l.08.04a.293.293 0 0 1 .066.04c.027.013.054.013.08.027l.08.04c.027.013.04.013.067.026l.08.04c.027.014.053.014.067.027.026.013.053.027.08.027l.08.04c.013 0 .04.013.066.026.027.014.054.014.08.027.027.013.04.013.067.027.027.013.053.026.08.026.027.014.04.027.067.027.026.013.053.027.08.027.026.013.04.013.066.026.027.014.054.014.08.027.027.013.04.013.067.027.027 0 .053.013.08.026.027 0 .04.014.067.014.026.013.053.013.08.026.026 0 .04.014.066.014.027.013.054.026.08.026.014.014.04.014.067.027.027 0 .053.013.067.013a.16.16 0 0 0 .08.014c.026.013.04.013.066.026.027 0 .054.014.08.014.014.013.04.013.067.013.027.013.053.013.067.027.026 0 .053 0 .08.013.013 0 .04.013.066.013.027 0 .054.014.067.014.027 0 .053.013.08.013.013.013.04.013.067.013.026.014.04.014.066.014a.15.15 0 0 0 .067.013c.027 0 .053.013.08.013.013 0 .04.014.067.014.026 0 .04 0 .066.013h.067a.149.149 0 0 0 .067.013c.026 0 .053.014.08.014.013 0 .04 0 .066.013h.067c.027 0 .04.013.067.013h.066a.141.141 0 0 0 .067.014h.067a.145.145 0 0 0 .066.013h.067c.027 0 .053 0 .067.013h.2c.026.014.053.014.066.014h.96c.027-.014.04-.014.067-.014h.12c.027 0 .04 0 .067-.013h.12c.013 0 .04 0 .053-.013h.12c.027-.014.04-.014.067-.014h.053c.013-.013.04-.013.053-.013h.067c.013-.013.04-.013.053-.013h.054c.026-.014.04-.014.066-.014.014 0 .027 0 .054-.013h.053c.013 0 .04-.013.053-.013.027 0 .04 0 .054-.014h.066c.014 0 .027-.013.054-.013.013 0 .026 0 .053-.013h.053c.014-.014.04-.014.054-.014.013 0 .04-.013.053-.013.013 0 .04 0 .053-.013h.054c.013-.014.026-.014.053-.014.013 0 .027-.013.053-.013.014 0 .027-.013.054-.013.013 0 .026 0 .04-.014h.053c.013-.013.04-.013.053-.013.014-.013.027-.013.054-.013.013 0 .026-.014.04-.014.026 0 .04-.013.053-.013.013 0 .04-.013.053-.013.014 0 .027 0 .04-.014.027 0 .04 0 .054-.013.013 0 .026 0 .053-.013.013 0 .027 0 .04-.014h.053c.014-.013.027-.013.04-.013.014-.013.027-.013.054-.013.013-.014.026-.014.04-.014.013-.013.026-.013.04-.013.013-.013.04-.013.053-.013.013-.014.027-.014.04-.014.013-.013.027-.013.04-.013.013-.013.027-.013.053-.013.014-.014.027-.014.04-.014.014-.013.027-.013.04-.013.014-.013.027-.013.04-.013.014-.014.027-.014.04-.014.014-.013.027-.013.04-.013.014-.013.027-.013.04-.013.014-.014.027-.014.04-.014.014-.013.027-.013.04-.013.014-.013.027-.013.04-.013.014-.014.027-.014.04-.014.014-.013.027-.013.04-.013.014-.013.027-.013.04-.013.014-.014.027-.014.04-.014.014-.013.027-.013.027-.013.013-.013.027-.013.04-.013.013-.014.027-.014.04-.014.013-.013.027-.013.04-.013 0-.013.013-.013.027-.013.013-.014.026-.014.04-.014.013-.013.013-.013.026-.013.014-.013.027-.013.04-.013.014-.014.014-.014.027-.014.013-.013.027-.013.04-.013 0-.013.013-.013.027-.013.013-.014.026-.014.026-.014.014 0 .027-.013.04-.013 0 0 .014-.013.027-.013s.013-.014.027-.014c.013 0 .026-.013.026-.013.014 0 .027-.013.04-.013 0 0 .014 0 .027-.014 0 0 .013 0 .027-.013 0 0 .013 0 .026-.013h.027c0-.014.013-.014.027-.014 0-.013.013-.013.026-.013l.014-.013c.013 0 .026-.014.026-.014.014 0 .014 0 .027-.013h.027c0-.013.013-.013.026-.013l.014-.014c.013 0 .013-.013.026-.013 0 0 .014 0 .014-.013h.026l.014-.014c.013 0 .013 0 .026-.013h.014c.013-.013.013-.013.026-.013l.014-.014h.013l.013-.013c.014 0 .014 0 .027-.013h.013l.014-.014h.013s0-.013.013-.013h.014s0-.013.013-.013.013 0 .013-.014h.027v-.013h.027v-.013h.013s.013 0 .013-.014h.014c.426-.32.853-.64 1.266-.946.427-.32.854-.64 1.267-.96.427-.32.84-.64 1.253-.96.427-.32.84-.64 1.254-.96.413-.32.813-.64 1.226-.96.414-.32.814-.64 1.227-.96.4-.334.8-.654 1.2-.974.413-.333.813-.653 1.2-.973.4-.333.8-.653 1.2-.987l1.173-.973c.387-.333.787-.653 1.174-.987.386-.32.773-.653 1.16-.986l1.146-.987c.374-.333.76-.653 1.134-.987a9402.509 9402.509 0 0 0 2.24-2c.373-.333.733-.666 1.106-1 .36-.333.734-.666 1.094-1l1.08-1c.36-.346.72-.68 1.08-1.013.36-.333.706-.667 1.066-1.013.347-.334.707-.667 1.054-1.014.346-.333.693-.666 1.04-1.013.346-.333.693-.68 1.04-1.013l1.026-1.027 1.014-1.013c.333-.347.666-.694 1-1.027.333-.347.666-.68 1-1.027.333-.346.653-.693.986-1.026.32-.347.654-.694.974-1.04.32-.334.64-.68.96-1.027l.96-1.04c.32-.333.64-.68.946-1.027.32-.346.627-.693.934-1.04.32-.346.626-.693.933-1.04l.92-1.04c.307-.346.6-.693.907-1.04.306-.346.6-.693.906-1.053l.88-1.04c.294-.347.587-.693.88-1.053l.88-1.04c.28-.347.574-.707.867-1.054.28-.346.56-.693.853-1.053.28-.347.56-.693.84-1.053.28-.347.56-.694.84-1.054.267-.346.547-.693.827-1.053.267-.347.547-.693.813-1.053.267-.347.534-.707.814-1.054.266-.346.533-.706.8-1.053.253-.36.52-.707.786-1.067.267-.346.52-.693.787-1.053.253-.347.507-.707.773-1.053.254-.36.507-.707.76-1.067.254-.347.507-.707.76-1.053.254-.36.494-.707.747-1.067.253-.347.493-.707.733-1.067.254-.346.494-.706.734-1.053.24-.36.493-.707.733-1.067.24-.346.467-.706.707-1.066.24-.347.48-.707.706-1.054.24-.36.467-.706.694-1.066.24-.36.466-.707.693-1.067.227-.347.453-.707.68-1.053.227-.36.453-.72.68-1.067.227-.36.44-.707.667-1.067.213-.36.44-.706.653-1.066.213-.347.44-.707.653-1.054.214-.36.427-.72.64-1.066.214-.36.427-.707.64-1.067.2-.347.414-.707.627-1.053.2-.36.413-.72.613-1.067.2-.36.414-.707.614-1.067.2-.346.4-.706.6-1.053.2-.36.4-.707.6-1.067.186-.346.386-.706.586-1.053.187-.36.387-.707.574-1.067.2-.346.386-.706.573-1.053.187-.36.387-.707.573-1.053.187-.36.374-.707.547-1.067.187-.347.373-.693.56-1.053.173-.347.36-.707.533-1.054.187-.346.36-.706.547-1.053.173-.347.347-.707.52-1.053.173-.347.36-.707.52-1.054.173-.346.347-.693.52-1.053.173-.347.347-.693.507-1.04.173-.36.333-.707.506-1.053.16-.347.32-.694.494-1.04.16-.36.32-.707.48-1.054l.48-1.04.48-1.04c.146-.346.306-.693.466-1.04.147-.346.307-.693.454-1.04.16-.346.306-.693.453-1.04.147-.346.307-.693.453-1.04.147-.346.294-.68.44-1.026.147-.347.28-.694.427-1.04.147-.334.293-.68.427-1.027.146-.347.28-.68.426-1.027.134-.346.267-.68.414-1.026.133-.334.266-.68.4-1.027.133-.333.266-.68.4-1.013.133-.347.266-.68.4-1.027.133-.333.253-.68.386-1.013.134-.334.254-.68.387-1.014.12-.333.253-.68.373-1.013.12-.333.254-.68.374-1.013l.36-1c.12-.347.24-.68.36-1.014l.36-1c.106-.333.226-.666.346-1 .107-.333.227-.666.334-1 .12-.333.226-.653.333-.986.12-.334.227-.667.333-1 .107-.32.214-.654.32-.987.107-.32.214-.653.32-.987.107-.32.214-.653.32-.973.094-.333.2-.653.307-.987.093-.32.2-.653.293-.973.107-.32.2-.653.307-.973.093-.32.187-.64.28-.974.107-.32.2-.64.293-.96l.28-.96c.094-.32.187-.64.267-.96l.28-.96c.08-.32.173-.64.253-.96.094-.306.174-.626.267-.946.08-.307.173-.627.253-.947.08-.307.174-.627.254-.933.08-.32.16-.627.24-.947.08-.307.16-.613.24-.933l.24-.92c.066-.32.146-.627.226-.934.08-.306.147-.613.227-.92.067-.306.147-.613.213-.92.08-.306.147-.613.214-.92.08-.293.146-.6.213-.906.067-.307.147-.6.213-.907.067-.293.134-.6.2-.893.067-.307.134-.6.2-.907.067-.293.12-.587.187-.893.067-.294.133-.587.187-.88.066-.294.133-.587.186-.894.067-.293.12-.586.187-.866.053-.294.107-.587.173-.88.054-.294.107-.587.174-.867.053-.293.106-.587.16-.867.053-.293.106-.573.173-.866.053-.28.107-.574.147-.854.053-.28.106-.573.16-.853.053-.28.106-.56.146-.84.054-.28.107-.56.147-.84.053-.28.107-.56.147-.84.053-.28.093-.56.146-.827.04-.28.094-.56.134-.826.04-.28.093-.547.133-.827.04-.267.08-.533.12-.813.053-.267.093-.534.133-.8.04-.28.08-.547.12-.814l.12-.8c.04-.266.08-.52.107-.786.04-.267.08-.534.12-.787.027-.267.067-.52.107-.787.026-.253.066-.52.106-.773.027-.253.067-.52.094-.773.04-.254.066-.507.093-.76.04-.254.067-.507.093-.76.04-.254.067-.507.094-.747.04-.253.066-.507.093-.747.027-.253.053-.506.08-.746l.08-.734.08-.733.08-.72c.027-.24.053-.48.08-.707.013-.24.04-.48.067-.72.026-.226.04-.466.066-.693.027-.24.04-.467.067-.707.013-.226.04-.453.053-.68.027-.24.04-.466.067-.693.013-.227.04-.453.053-.667.027-.226.04-.453.054-.68.026-.213.04-.44.053-.653.013-.227.04-.44.053-.667l.04-.64c.027-.226.04-.44.054-.653.013-.213.026-.427.04-.627l.04-.64.04-.613.04-.613c0-.214.013-.414.026-.614.014-.2.027-.4.027-.6l.04-.586c0-.2.013-.4.027-.587 0-.2.013-.387.026-.587 0-.186.014-.373.014-.56.013-.2.026-.386.026-.573.014-.187.014-.36.027-.547 0-.186.013-.373.013-.546 0-.187.014-.36.014-.547.013-.173.013-.36.013-.533.013-.174.013-.347.013-.52.014-.174.014-.347.014-.52.013-.174.013-.334.013-.507s.013-.333.013-.507v-.48c.014-.173.014-.333.014-.493v-.48c0-.147.013-.307.013-.467v-2.626c0-.134-.013-.28-.013-.414v-.786c-.014-.134-.014-.254-.014-.387v-.373c-.013-.12-.013-.24-.013-.36s0-.24-.013-.36v-.347c0-.107-.014-.227-.014-.333 0-.12 0-.227-.013-.334v-.32c-.013-.106-.013-.2-.013-.306 0-.107-.014-.2-.014-.307 0-.093-.013-.187-.013-.28 0-.107 0-.2-.013-.293 0-.094 0-.174-.014-.267v-.267c-.013-.08-.013-.173-.013-.253-.013-.08-.013-.16-.013-.24-.014-.08-.014-.16-.014-.24 0-.067-.013-.147-.013-.213 0-.08-.013-.147-.013-.214 0-.08-.014-.146-.014-.213s0-.133-.013-.187c0-.066 0-.133-.013-.186v-.174c-.014-.053-.014-.12-.014-.173-.013-.053-.013-.093-.013-.147 0-.053-.013-.093-.013-.146 0-.04 0-.094-.014-.134v-.12c0-.04-.013-.08-.013-.12v-.093c-.013-.04-.013-.067-.013-.093 0-.027 0-.054-.014-.08v-.134c0-.013-.013-.04-.013-.053v-.08Z"/></svg>