<svg xmlns="http://www.w3.org/2000/svg" viewBox="0 0 255.9 48.5"><path fill="#1300FF" d="M0 37h10.9v10.9H0z"/><path fill="#1D1D1B" d="M42.4 36.8H29.9L27.2 48H16.3L29 1l15.6-1 13.2 48H45l-2.6-11.2zm-10.5-8.4h8.5l-4.2-17.8-4.3 17.8zm49.8 20.1c-9.1 0-19.9-4.4-19.9-23.5 0-15.9 6.8-25 20.4-25 7.2 0 11 1.4 14.2 2.5l-2.5 8.1c-5-1.5-8.3-2.3-12.4-2.2-4.7.2-6.5 3.8-6.9 6.7-.4 2.6-.6 5.7-.6 8.9 0 9.9 4.2 14.7 12.1 15.8V25h10.5v21.4c-4.2 1.3-9.3 2.1-14.9 2.1m95.1-19.2L187.2 48h-12.9l-7.6-16c-1.5 0-3-.2-3.6-.3V48h-11.8V.8s10.5-.8 13.8-.8c11.5 0 19.1 3.7 19.1 15-.3 6.1-2.7 11.3-7.4 14.3M162.9 8.1v14.6c2 .3 5.2.5 6.8.5 1.2-1.7 2.1-4.4 2.1-7.9 0-5.7-2.6-7.2-8.9-7.2M206.7 48h-11.8V1l11.8-1zm33.8-11.2H228L225.3 48h-10.9l12.7-47 15.6-1 13.2 48h-12.8l-2.6-11.2zM230 28.4h8.5l-4.2-17.8-4.3 17.8zM124.5 0c-12.1 0-20.3 8.1-20.3 24.3 0 14.1 6 24.2 19.4 24.2 11.8 0 20.5-8 20.5-24.2S138.1 0 124.5 0m7.5 26c0 6.3-3.4 13.7-8 13.7-5.2 0-7.6-6.8-7.6-12.3v-5.3c0-6.3 3.2-13.8 7.9-13.8 5.3 0 7.7 6 7.7 12.3V26"/></svg>