<svg xmlns="http://www.w3.org/2000/svg" xml:space="preserve" id="svg2" x="0" y="0" style="enable-background:new 0 0 485.7 87.7" version="1.1" viewBox="0 0 485.7 87.7"><style>.st0{fill:#831f82}.st1{fill:#254098}</style><g id="g10" transform="matrix(1.33333 0 0 -1.33333 0 87.733)"><g id="g12" transform="scale(.1)"><path id="path14" d="M145.6 216.5c8.9 0 15.3 6.2 15.3 15.3 0 9.2-7 15.4-16.1 15.4H115v-30.7h30.6zM115 265.2h24.8c4.8 1.4 9.4 6.9 9.5 12.8.2 8.1-5.8 14-14.2 14H115v-26.8zm-12.2-67.6c-5.3 0-7.6 3.6-7.6 7.5v98.4c0 3.9 2.3 7.6 7.6 7.6H135c20.4 0 34.2-13.1 34.2-32.1 0-6.4-3.6-13.3-8-17.3 11.4-4.2 19.7-16.9 19.7-30 0-20.6-14.2-34-34.8-34h-43.3" class="st0"/><path id="path16" d="M228.8 292v-32h23.3c11.6 0 17.6 6.2 17.6 15.4 0 9.8-6.2 16.5-16.7 16.5h-24.2zm63.1-84.1c3.4-5 .2-10.3-5.8-10.3h-6.4c-3 0-6.1 1.7-7.8 4.2l-25.4 39.6h-17.6V205c0-3.9-2.3-7.5-7.7-7.5h-4.5c-5.3 0-7.8 3.6-7.8 7.5v98.4c0 3.9 2.5 7.6 7.8 7.6h36.5c22.2 0 37-14.5 37-35 0-16.5-10.3-28.3-23-32.2l24.7-35.9" class="st0"/><path id="path18" d="M321.4 236.3v67.1c0 3.9 2.3 7.6 7.6 7.6h4.5c5.3 0 7.7-3.8 7.7-7.6V236c0-13.3 8.7-20.9 21.5-20.9 13 0 21.4 7.6 21.4 20.9v67.4c0 3.9 2.3 7.6 7.7 7.6h4.4c5.3 0 7.6-3.8 7.6-7.6v-67.1c0-24.7-15.8-40-41.1-40-25.5 0-41.3 15.2-41.3 40" class="st0"/><path id="path20" d="M519.4 231.5c0-17.8-16.2-35.1-42.5-35.1-25.1 0-43.7 13.3-44.2 39.3 0 4.2 2.8 7.6 7.3 7.6h5.1c4.4 0 7.7-2.6 8-7.3.9-14 9.8-20.6 23.7-20.6 13.4 0 21.9 7 21.9 15.6 0 6.7-3.9 11.1-13.9 13.4-5.9 1.4-12.3 3.1-18.9 5-13.1 3.8-28.4 11.4-28.4 30 0 21.1 17 32.9 38.7 32.9 20.6 0 37.6-12.6 39.6-31.7.5-4.5-2.2-8-7.5-8h-4.5c-4.4 0-7.5 3-8 7-.9 9.4-9.2 14.2-20 14.2s-18.6-5.8-18.4-14c.2-6.9 7.2-10.2 14.8-12.2 6.1-1.7 11.2-3 17.6-4.5 20.5-4.6 29.6-15.2 29.6-31.6" class="st0"/><path id="path22" d="M627.9 231.5c0-17.8-16.2-35.1-42.5-35.1-25.1 0-43.7 13.3-44.2 39.3 0 4.2 2.8 7.6 7.3 7.6h5.2c4.4 0 7.7-2.6 8-7.3.9-14 9.8-20.6 23.7-20.6 13.4 0 21.9 7 21.9 15.6 0 6.7-3.9 11.1-13.9 13.4-5.9 1.4-12.3 3.1-18.9 5-13.1 3.8-28.4 11.4-28.4 30 0 21.1 17 32.9 38.7 32.9 20.6 0 37.6-12.6 39.6-31.7.5-4.5-2.2-8-7.5-8h-4.5c-4.4 0-7.5 3-8 7-.9 9.4-9.2 14.2-20 14.2s-18.6-5.8-18.4-14c.2-6.9 7.2-10.2 14.8-12.2 6.1-1.7 11.2-3 17.6-4.5 20.4-4.6 29.5-15.2 29.5-31.6" class="st0"/><path id="path24" d="M676.3 292v-26.2h35.1c4.4 0 7.8-2.8 7.8-7.6v-3.8c0-4.8-3.4-7.7-7.8-7.7h-35.1v-30.1h48.5c4.7 0 7.8-3.4 7.8-7.5V205c0-4.2-3.1-7.5-7.8-7.5h-60.6c-5.3 0-7.6 3.4-7.6 7.5v98.4c0 4 2.3 7.6 7.6 7.6H722c4.1 0 7.5-2.8 7.5-7.6v-3.7c0-4.7-3.4-7.7-7.5-7.7h-45.7" class="st0"/><path id="path26" d="M766.5 197.6c-5.3 0-7.5 3.6-7.5 7.5v98.4c0 3.9 2.5 7.6 7.5 7.6h4.5c5 0 7.5-3.8 7.5-7.6v-86.6h45c3.9 0 7.5-2.3 7.5-7.5v-4.2c0-5.1-3.6-7.5-7.5-7.5h-57" class="st0"/><path id="path28" d="M911 292v-26.2h35.1c4.4 0 7.8-2.8 7.8-7.6v-3.8c0-4.8-3.4-7.7-7.8-7.7H911v-30.1h48.5c4.7 0 7.8-3.4 7.8-7.5V205c0-4.2-3.1-7.5-7.8-7.5h-60.6c-5.3 0-7.6 3.4-7.6 7.5v98.4c0 4 2.3 7.6 7.6 7.6h57.8c4.1 0 7.5-2.8 7.5-7.6v-3.7c0-4.7-3.4-7.7-7.5-7.7H911" class="st0"/><path id="path30" d="M1067.7 237.2h5.6c5 0 8.4-3.6 5.9-9.7-8.9-21.1-24-31.2-45-31.2-28.9 0-47.6 25-47.6 57.9 0 34.3 19.2 58.1 48.9 58.1 20.6 0 37.3-14 42.3-33.2.9-3.8-.8-7.7-4.7-8.8l-4.5-1.2c-4.2-1.1-8.6.5-9.7 4.8-2.8 11.5-11.1 19.5-23.4 19.7-18 .2-29.2-15.4-29.2-39.2 0-22.5 10.8-38.9 28.1-38.9 12.5 0 20.9 5.8 25.1 16.4 1.5 3.6 4.6 5.3 8.2 5.3" class="st0"/><path id="path32" d="M1122.4 254.3c0-22.5 10.1-39 27.3-39 17.2 0 27.3 16.5 27.3 39 0 22.2-10.5 39.6-27.3 39.6-16.9 0-27.3-17.5-27.3-39.6zm-19.7 0c0 33.7 18.9 58.1 47 58.1s47-24.4 47-58.1-18.6-57.9-47-57.9c-28.4-.1-47 24.1-47 57.9" class="st0"/><path id="path34" d="M1225.6 303.4c0 3.9 2.5 7.6 7.8 7.6h7.5c3.1 0 5.9-2.2 7.3-4.7L1289 234l-.2 69.5c0 4.2 2.7 7.6 7.3 7.6h4.7c5 0 7.5-3.4 7.5-7.6v-98.2c0-4-2.7-7.6-7.7-7.6h-6.7c-3.1 0-5.6 2-6.9 4.2l-42.2 74.9.3-71.7c0-3.9-2-7.5-7.3-7.5h-4.8c-5.3 0-7.5 3.6-7.5 7.5l.1 98.3" class="st0"/><path id="path36" d="M1356.9 254.3c0-22.5 10.1-39 27.3-39s27.3 16.5 27.3 39c0 22.2-10.5 39.6-27.3 39.6s-27.3-17.5-27.3-39.6zm-19.7 0c0 33.7 18.9 58.1 47 58.1s47-24.4 47-58.1-18.6-57.9-47-57.9-47 24.1-47 57.9" class="st0"/><path id="path38" d="m1548.9 275.6-24.2-51.5c-1.1-2.3-3.8-4.7-6.9-4.7h-7.2c-3.4 0-5.8 2.2-6.9 4.5l-24.5 51.7.6-70.6c0-3.9-2.2-7.5-7.5-7.5h-4.2c-5.3 0-7.3 3.6-7.3 7.5v98.4c0 3.9 2.3 7.6 7.3 7.6h8.1c3.1 0 5.8-1.7 7.2-4.5l30.6-62.8 30.9 62.9c1.2 2.5 3.6 4.4 7.3 4.4h7.8c5.2 0 7.5-3.8 7.5-7.6V205c0-3.9-2.3-7.5-7.7-7.5h-4.2c-5.3 0-7.3 3.6-7.3 7.5l.6 70.6" class="st0"/><path id="path40" d="M1606.7 303.6c0 4.2 2.5 7.5 7.5 7.5h4.4c5 0 7.7-3.3 7.7-7.5v-98.7c0-4-2.5-7.3-7.7-7.3h-4.2c-5 0-7.7 3.3-7.7 7.3v98.7" class="st0"/><path id="path42" d="M1684.9 292v-26.2h35.1c4.4 0 7.8-2.8 7.8-7.6v-3.8c0-4.8-3.4-7.7-7.8-7.7h-35.1v-30.1h48.5c4.7 0 7.8-3.4 7.8-7.5V205c0-4.2-3.1-7.5-7.8-7.5h-60.6c-5.3 0-7.7 3.4-7.7 7.5v98.4c0 4 2.3 7.6 7.7 7.6h57.8c4.1 0 7.5-2.8 7.5-7.6v-3.7c0-4.7-3.4-7.7-7.5-7.7h-45.7" class="st0"/><path id="path44" d="M1827.2 292v-26.2h35.1c4.4 0 7.8-2.8 7.8-7.6v-3.8c0-4.8-3.4-7.7-7.8-7.7h-35.1v-30.1h48.6c4.7 0 7.8-3.4 7.8-7.5V205c0-4.2-3.1-7.5-7.8-7.5h-60.6c-5.3 0-7.7 3.4-7.7 7.5v98.4c0 4 2.3 7.6 7.7 7.6h57.8c4.1 0 7.5-2.8 7.5-7.6v-3.7c0-4.7-3.4-7.7-7.5-7.7h-45.8" class="st0"/><path id="path46" d="M1910.1 303.4c0 3.9 2.5 7.6 7.8 7.6h7.5c3.1 0 5.9-2.2 7.3-4.7l40.7-72.4-.2 69.5c0 4.2 2.7 7.6 7.3 7.6h4.7c5 0 7.5-3.4 7.5-7.6v-98.2c0-4-2.7-7.6-7.7-7.6h-6.7c-3.1 0-5.6 2-6.9 4.2l-42.2 74.9.3-71.7c0-3.9-2-7.5-7.3-7.5h-4.8c-5.3 0-7.5 3.6-7.5 7.5l.2 98.4" class="st0"/><path id="path48" d="M2124.6 311.1c3.9 0 6.6-2.2 7.3-5.9l13.9-70.4 14.5 70.4c.8 3.6 3.4 5.9 7.3 5.9h5.8c4.9 0 8-3.3 6.7-8.3l-24.2-99.6c-.8-3.3-3.3-5.6-7.2-5.6h-7.3c-3.9 0-6.9 2-7.7 5.8l-13.3 72.8-13.4-72.8c-.8-3.7-3.6-5.8-7.3-5.8h-7.5c-3.9 0-6.4 2.3-7.2 5.6l-24.4 99.4c-1.2 5 1.7 8.4 6.9 8.4h5.8c3.8 0 6.4-2.3 7.2-5.9l14.8-70.4 13.7 70.4c.8 3.8 3.4 5.9 7.2 5.9h8.4" class="st0"/><path id="path50" d="M2227.5 292v-26.2h35.1c4.4 0 7.8-2.8 7.8-7.6v-3.8c0-4.8-3.4-7.7-7.8-7.7h-35.1v-30.1h48.6c4.7 0 7.8-3.4 7.8-7.5V205c0-4.2-3.1-7.5-7.8-7.5h-60.6c-5.3 0-7.6 3.4-7.6 7.5v98.4c0 4 2.3 7.6 7.6 7.6h57.8c4.1 0 7.5-2.8 7.5-7.6v-3.7c0-4.7-3.4-7.7-7.5-7.7h-45.8" class="st0"/><path id="path52" d="M2330.2 292v-32h23.3c11.6 0 17.6 6.2 17.6 15.4 0 9.8-6.2 16.5-16.7 16.5h-24.2zm63.1-84.1c3.4-5 .1-10.3-5.8-10.3h-6.4c-3 0-6.1 1.7-7.8 4.2l-25.4 39.6h-17.7V205c0-3.9-2.3-7.5-7.6-7.5h-4.5c-5.3 0-7.8 3.6-7.8 7.5v98.4c0 3.9 2.5 7.6 7.8 7.6h36.5c22.2 0 37-14.5 37-35 0-16.5-10.3-28.3-22.9-32.2l24.6-35.9" class="st0"/><path id="path54" d="m2449.5 245-6.7-7.3v-32.6c0-3.9-2.6-7.5-7.6-7.5h-4.5c-5 0-7.7 3.6-7.7 7.5v98.4c0 4.4 2.5 7.6 7.8 7.6h4.4c5 0 7.6-3.3 7.6-7.6v-40.1l38.6 44c1.4 1.6 4.5 3.8 8.1 3.8h7c6.2 0 7.6-6.1 3.9-10.3l-37.9-41.8 42.1-50.9c3.6-4.4 1.6-10.4-4.2-10.4h-7.5c-2.8 0-6.2 1.9-8.4 4.7l-35 42.5" class="st0"/><path id="path56" d="m2605 273.5-4.5-1.7c-4.1-1.4-8 .5-9.4 4.4-3.9 10.1-11.4 17.5-23.7 17.5-17.8 0-28.2-17.8-28.2-39.6 0-22.5 9.7-39 28.1-39 16.6 0 25.4 11.2 26.1 26.5h-19.1c-4.2 0-7.6 2.5-7.6 7.3v3.9c0 4.7 3.1 7.7 7.5 7.7h31.1c4.4 0 7.3-2.7 7.3-7.3v-5.5c0-32-19.2-51.2-46.1-51.2-29.3 0-46.7 24.7-46.7 57.4 0 32.9 19.5 58.5 47.8 58.5 21.1 0 36.2-11.9 41.8-29.7 1.4-4.2-.3-7.8-4.4-9.2" class="st0"/><path id="path58" d="M2661.9 292v-26.2h35.1c4.4 0 7.8-2.8 7.8-7.6v-3.8c0-4.8-3.4-7.7-7.8-7.7h-35.1v-30.1h48.6c4.7 0 7.8-3.4 7.8-7.5V205c0-4.2-3.1-7.5-7.8-7.5h-60.6c-5.3 0-7.7 3.4-7.7 7.5v98.4c0 4 2.4 7.6 7.7 7.6h57.8c4.1 0 7.5-2.8 7.5-7.6v-3.7c0-4.7-3.4-7.7-7.5-7.7h-45.8" class="st0"/><path id="path60" d="M2752.3 197.6c-5.3 0-7.5 3.6-7.5 7.5v98.4c0 3.9 2.5 7.6 7.5 7.6h4.5c5 0 7.5-3.8 7.5-7.6v-86.6h45c3.9 0 7.5-2.3 7.5-7.5v-4.2c0-5.1-3.6-7.5-7.5-7.5h-57" class="st0"/><path id="path62" d="M2856.6 292v-26.2h35.1c4.4 0 7.8-2.8 7.8-7.6v-3.8c0-4.8-3.4-7.7-7.8-7.7h-35.1v-30.1h48.6c4.7 0 7.8-3.4 7.8-7.5V205c0-4.2-3.1-7.5-7.8-7.5h-60.6c-5.3 0-7.7 3.4-7.7 7.5v98.4c0 4 2.3 7.6 7.7 7.6h57.8c4.1 0 7.5-2.8 7.5-7.6v-3.7c0-4.7-3.4-7.7-7.5-7.7h-45.8" class="st0"/><path id="path64" d="m3017.7 273.5-4.5-1.7c-4.1-1.4-7.9.5-9.4 4.4-3.9 10.1-11.4 17.5-23.7 17.5-17.8 0-28.3-17.8-28.3-39.6 0-22.5 9.7-39 28.1-39 16.5 0 25.4 11.2 26.1 26.5h-19c-4.2 0-7.7 2.5-7.7 7.3v3.9c0 4.7 3.1 7.7 7.5 7.7h31.1c4.4 0 7.3-2.7 7.3-7.3v-5.5c0-32-19.2-51.2-46.1-51.2-29.4 0-46.7 24.7-46.7 57.4 0 32.9 19.5 58.5 47.8 58.5 21.1 0 36.2-11.9 41.8-29.7 1.5-4.2-.3-7.8-4.3-9.2" class="st0"/><path id="path66" d="M3074.5 292v-26.2h35.1c4.4 0 7.8-2.8 7.8-7.6v-3.8c0-4.8-3.4-7.7-7.8-7.7h-35.1v-30.1h48.6c4.7 0 7.8-3.4 7.8-7.5V205c0-4.2-3.1-7.5-7.8-7.5h-60.6c-5.3 0-7.6 3.4-7.6 7.5v98.4c0 4 2.3 7.6 7.6 7.6h57.8c4.1 0 7.5-2.8 7.5-7.6v-3.7c0-4.7-3.4-7.7-7.5-7.7h-45.8" class="st0"/><path id="path68" d="M3157.3 303.4c0 3.9 2.5 7.6 7.8 7.6h7.5c3.1 0 5.9-2.2 7.3-4.7l40.7-72.4-.2 69.5c0 4.2 2.7 7.6 7.4 7.6h4.7c5 0 7.5-3.4 7.5-7.6v-98.2c0-4-2.6-7.6-7.6-7.6h-6.7c-3.1 0-5.6 2-6.9 4.2l-42.1 74.9.3-71.7c0-3.9-2-7.5-7.3-7.5h-4.8c-5.3 0-7.5 3.6-7.5 7.5l-.1 98.4" class="st0"/><path id="path70" d="M3274.4 303.4c0 3.9 2.3 7.6 7.7 7.6h4.4c5.3 0 7.8-3.8 7.8-7.6v-39.8h39.5v39.8c0 3.9 2.3 7.6 7.6 7.6h4.5c5.3 0 7.7-3.8 7.7-7.6V205c0-3.9-2.3-7.5-7.7-7.5h-4.5c-5.3 0-7.6 3.6-7.6 7.5v39.5h-39.5V205c0-3.9-2.5-7.5-7.8-7.5h-4.4c-5.3 0-7.7 3.6-7.7 7.5v98.4" class="st0"/><path id="path72" d="M3407.6 292v-26.2h35.1c4.4 0 7.8-2.8 7.8-7.6v-3.8c0-4.8-3.4-7.7-7.8-7.7h-35.1v-30.1h48.6c4.7 0 7.8-3.4 7.8-7.5V205c0-4.2-3.1-7.5-7.8-7.5h-60.6c-5.3 0-7.6 3.4-7.6 7.5v98.4c0 4 2.3 7.6 7.6 7.6h57.8c4 0 7.5-2.8 7.5-7.6v-3.7c0-4.7-3.4-7.7-7.5-7.7h-45.8" class="st0"/><path id="path74" d="M3495 303.6c0 4.2 2.5 7.5 7.5 7.5h4.4c5 0 7.7-3.3 7.7-7.5v-98.7c0-4-2.5-7.3-7.7-7.3h-4.2c-5 0-7.6 3.3-7.6 7.3l-.1 98.7" class="st0"/><path id="path76" d="M3588.4 216.5c21.2 0 35 15.8 35 37.6 0 22.6-13.3 38.1-35.1 38.1H3573v-75.7h15.4zm-27.5-18.9c-5.1 0-7.3 3.6-7.3 7.5v98.4c0 3.9 2.3 7.6 7.3 7.6h26.7c33.1 0 55.1-22.5 55.1-57 0-33.6-23.3-56.5-54.8-56.5h-27" class="st0"/><path id="path78" d="M72.6 534C36.2 534 0 506.6 0 460.7c0-44.5 41.2-72.2 77-72.2 39.4 0 58.4 12.4 91.7 5.6 26-5.2 40-17.9 47-24.6 3.3-3.2 7.6-3.6 10.4-1.6 2.9 1.9 4.8 5.5 2.9 14.1-4.5 20-15.2 42.5-27.6 61.6C177 481.2 127.6 534 72.6 534" class="st0"/><path id="path80" d="M409.6 534c36.4 0 72.6-27.5 72.6-73.4 0-44.5-41.2-72.2-77.1-72.2-39.4 0-58.4 12.4-91.6 5.6-26-5.2-40-17.9-47-24.6-3.3-3.2-7.6-3.6-10.4-1.6-2.9 1.9-4.8 5.5-2.9 14.1 4.6 20 15.2 42.5 27.6 61.6 24.4 37.7 73.8 90.5 128.8 90.5" class="st0"/><path id="path82" d="M326.7 556.5c-25.6-35-60.3-46.2-85.6-100.9-25.3 54.8-60 66-85.6 100.9-6.5 8.9-10.1 18.6-10.1 29.3 0 28.1 22.7 51.3 50.8 51.3 24.4 0 39.6-18.4 44.9-31.5 5.3 13.1 20.5 31.5 44.9 31.5 28.1 0 50.8-23.2 50.8-51.3 0-10.7-3.6-20.4-10.1-29.3zm-39 101.5c-20.3 0-37.2-8.6-46.6-21-9.4 12.5-26.3 21-46.6 21-36.8 0-70.6-29.3-70.6-71.9 0-18.6 7.5-32.8 14.3-42.7 7.7-11.3 17.9-21 33.9-34.9 23.2-20.2 42.3-39.8 60.5-78.3 1.5-3.1 4.5-6.6 8.5-6.6s7.1 3.5 8.5 6.6c18.2 38.4 37.3 58.1 60.5 78.3 16 13.9 26.2 23.7 33.9 34.9 6.8 9.9 14.3 24.1 14.3 42.7.1 42.6-33.7 71.9-70.6 71.9" class="st0"/><path id="path84" d="m151.1 57.8-3.4-1.3c-3-1.1-6 .4-7 3.3-2.9 7.6-8.5 13.1-17.8 13.1-13.3 0-21.2-13.3-21.2-29.7 0-16.9 7.3-29.3 21.1-29.3 12.4 0 19.1 8.4 19.5 19.9H128c-3.2 0-5.7 1.9-5.7 5.5v2.9c0 3.5 2.3 5.7 5.6 5.7h23.3c3.3 0 5.5-2 5.5-5.5v-4.1c0-24-14.4-38.4-34.5-38.4-22 0-35 18.5-35 43.1-.1 24.8 14.6 44 35.8 44 15.8 0 27.2-8.9 31.4-22.2 1-3.2-.3-5.9-3.3-7" class="st1"/><path id="path86" d="M193.7 71.7V52.1H220c3.3 0 5.9-2.1 5.9-5.7v-2.8c0-3.6-2.6-5.7-5.9-5.7h-26.3V15.2h36.4c3.5 0 5.9-2.6 5.9-5.6v-3c0-3.1-2.3-5.6-5.9-5.6h-45.4c-4 0-5.7 2.6-5.7 5.6v73.7c0 3 1.8 5.7 5.7 5.7H228c3 0 5.6-2.1 5.6-5.7v-2.8c0-3.5-2.6-5.7-5.6-5.7h-34.3" class="st1"/><path id="path88" d="M298.7 86c2.9 0 4.9-1.6 5.5-4.5l10.4-52.8 10.9 52.8c.6 2.7 2.6 4.5 5.5 4.5h4.3c3.6 0 6-2.5 5-6.2L322.2 5.1c-.6-2.4-2.5-4.2-5.4-4.2h-5.5c-2.9 0-5.2 1.5-5.7 4.3l-9.9 54.6-10.1-54.5c-.6-2.8-2.7-4.3-5.5-4.3h-5.6c-2.9 0-4.8 1.8-5.4 4.2l-18.3 74.6c-.9 3.8 1.3 6.3 5.2 6.3h4.3c2.8 0 4.8-1.8 5.4-4.5l11.1-52.8 10.3 52.8c.6 2.8 2.6 4.5 5.4 4.5h6.2" class="st1"/><path id="path90" d="M375.9 71.7V52.1h26.3c3.3 0 5.8-2.1 5.8-5.7v-2.8c0-3.6-2.6-5.7-5.8-5.7h-26.3V15.2h36.4c3.5 0 5.9-2.6 5.9-5.6v-3c0-3.1-2.3-5.6-5.9-5.6h-45.4c-4 0-5.7 2.6-5.7 5.6v73.7c0 3 1.8 5.7 5.7 5.7h43.3c3 0 5.6-2.1 5.6-5.7v-2.8c0-3.5-2.6-5.7-5.6-5.7h-34.3" class="st1"/><path id="path92" d="M496.6 26.3C496.6 13 484.4 0 464.8 0 446 0 432 9.9 431.7 29.5c0 3.2 2.1 5.7 5.5 5.7h3.9c3.3 0 5.7-2 6-5.5.7-10.5 7.4-15.4 17.8-15.4 10.1 0 16.4 5.3 16.4 11.7 0 5-2.9 8.3-10.4 10.1-4.4 1.1-9.2 2.3-14.2 3.8-9.8 2.8-21.3 8.6-21.3 22.5 0 15.8 12.8 24.7 29 24.7 15.4 0 28.2-9.5 29.7-23.8.4-3.4-1.6-6-5.6-6H485c-3.3 0-5.6 2.2-6 5.3-.7 7-6.9 10.6-15 10.6s-13.9-4.3-13.8-10.5c.1-5.2 5.4-7.6 11.1-9.1 4.6-1.3 8.4-2.2 13.2-3.4 15.3-3.6 22.1-11.6 22.1-23.9" class="st1"/><path id="path94" d="M509.3 71.7c-3.3 0-5.6 2.2-5.6 5.7v2.8c0 3.5 2.3 5.7 5.6 5.7h54.9c3.3 0 5.6-2.2 5.6-5.7v-2.8c0-3.5-2.3-5.7-5.6-5.7H544V6.5c0-3-2.1-5.6-5.7-5.6H535c-3.6 0-5.6 2.6-5.6 5.6v65.2h-20.1" class="st1"/><path id="path96" d="M600.4 71.7V52.1h26.3c3.3 0 5.9-2.1 5.9-5.7v-2.8c0-3.6-2.6-5.7-5.9-5.7h-26.3V15.2h36.4c3.5 0 5.9-2.6 5.9-5.6v-3c0-3.1-2.3-5.6-5.9-5.6h-45.4c-4 0-5.7 2.6-5.7 5.6v73.7c0 3 1.8 5.7 5.7 5.7h43.3c3 0 5.6-2.1 5.6-5.7v-2.8c0-3.5-2.6-5.7-5.6-5.7h-34.3" class="st1"/><path id="path98" d="M668.2.9c-4 0-5.6 2.7-5.6 5.6v73.7c0 2.9 1.9 5.7 5.6 5.7h3.4c3.7 0 5.6-2.8 5.6-5.7V15.3h33.7c2.9 0 5.6-1.8 5.6-5.6V6.5c0-3.8-2.7-5.6-5.6-5.6h-42.7" class="st1"/><path id="path100" d="M735.1 80.4c0 3.2 1.9 5.6 5.6 5.6h3.3c3.7 0 5.7-2.5 5.7-5.6v-74c0-3-1.9-5.5-5.7-5.5h-3.2c-3.7 0-5.7 2.5-5.7 5.5v74" class="st1"/><path id="path102" d="M820.7 24.7C820.7 9 811 0 795.3 0c-15.2 0-24.9 9.2-24.9 24.5v2.7c0 2.9 1.9 5.7 5.9 5.7h3.3c4 0 5.6-2.8 5.6-5.7v-2.9c0-6.2 3.7-10.3 10.2-10.3 6.4 0 10.9 4.2 10.9 10.5v55.8c0 2.9 1.6 5.7 5.6 5.7h3.2c4 0 5.7-2.8 5.7-5.7l-.1-55.6" class="st1"/><path id="path104" d="m865.8 36.5-5-5.5V6.5c0-2.9-2-5.6-5.7-5.6h-3.4c-3.7 0-5.7 2.7-5.7 5.6v73.7c0 3.3 1.9 5.7 5.9 5.7h3.3c3.7 0 5.7-2.5 5.7-5.7v-30l28.9 33c1.1 1.2 3.4 2.8 6.1 2.8h5.3c4.7 0 5.7-4.6 2.9-7.7l-28.4-31.4 31.6-38.2c2.7-3.3 1.2-7.8-3.2-7.8h-5.6c-2.1 0-4.7 1.4-6.3 3.5l-26.4 32.1" class="st1"/><path id="path106" d="M940.9 71.7V52.1h26.3c3.3 0 5.9-2.1 5.9-5.7v-2.8c0-3.6-2.6-5.7-5.9-5.7h-26.3V15.2h36.4c3.5 0 5.9-2.6 5.9-5.6v-3c0-3.1-2.3-5.6-5.9-5.6h-45.4c-4 0-5.7 2.6-5.7 5.6v73.7c0 3 1.8 5.7 5.7 5.7h43.3c3 0 5.6-2.1 5.6-5.7v-2.8c0-3.5-2.6-5.7-5.6-5.7h-34.3" class="st1"/><path id="path108" d="M1043.6 43.4c0-16.9 7.6-29.3 20.5-29.3s20.5 12.4 20.5 29.3c0 16.6-7.8 29.7-20.5 29.7s-20.5-13.1-20.5-29.7zm-14.8 0c0 25.3 14.2 43.5 35.2 43.5 21.1 0 35.2-18.3 35.2-43.5 0-25.3-13.9-43.4-35.2-43.4-21.3 0-35.2 18.1-35.2 43.4" class="st1"/><path id="path110" d="M1153.6 4.9c-.8-2.3-2.8-4-5.5-4h-5c-2.5 0-4.7 1.6-5.5 4l-26 74.1c-1.4 4 .6 7 4.6 7h4.6c2.9 0 4.8-1.8 5.6-4.2l19.3-58.8 19 58.8c.7 2.3 2.8 4.2 5.6 4.2h4.4c4 0 6-3.3 4.7-7l-25.8-74.1" class="st1"/><path id="path112" d="M1213.9 71.7V52.1h26.3c3.3 0 5.8-2.1 5.8-5.7v-2.8c0-3.6-2.6-5.7-5.8-5.7h-26.3V15.2h36.4c3.5 0 5.9-2.6 5.9-5.6v-3c0-3.1-2.3-5.6-5.9-5.6h-45.4c-4 0-5.7 2.6-5.7 5.6v73.7c0 3 1.8 5.7 5.7 5.7h43.3c3 0 5.6-2.1 5.6-5.7v-2.8c0-3.5-2.6-5.7-5.6-5.7h-34.3" class="st1"/><path id="path114" d="M1291 71.7v-24h17.4c8.7 0 13.2 4.7 13.2 11.6 0 7.4-4.7 12.4-12.5 12.4H1291zm47.3-63c2.6-3.8.1-7.7-4.3-7.7h-4.8c-2.2 0-4.6 1.3-5.9 3.2l-19.1 29.7H1291V6.5c0-2.9-1.8-5.6-5.7-5.6h-3.4c-4 0-5.8 2.7-5.8 5.6v73.7c0 2.9 1.9 5.7 5.8 5.7h27.4c16.6 0 27.7-10.9 27.7-26.2 0-12.4-7.7-21.2-17.2-24.1l18.5-26.9" class="st1"/><path id="path116" d="M1360.4 80.3c0 2.9 1.8 5.7 5.7 5.7h3.3c4 0 5.9-2.8 5.9-5.7V50.4h29.6v29.8c0 2.9 1.8 5.7 5.7 5.7h3.4c4 0 5.7-2.8 5.7-5.7V6.5c0-2.9-1.8-5.6-5.7-5.6h-3.4c-4 0-5.7 2.7-5.7 5.6v29.6h-29.6V6.5c0-2.9-1.9-5.6-5.9-5.6h-3.3c-4 0-5.7 2.7-5.7 5.6v73.8" class="st1"/><path id="path118" d="M1460.3 71.7V52.1h26.3c3.3 0 5.8-2.1 5.8-5.7v-2.8c0-3.6-2.6-5.7-5.8-5.7h-26.3V15.2h36.4c3.5 0 5.9-2.6 5.9-5.6v-3c0-3.1-2.3-5.6-5.9-5.6h-45.4c-4 0-5.7 2.6-5.7 5.6v73.7c0 3 1.8 5.7 5.7 5.7h43.3c3 0 5.6-2.1 5.6-5.7v-2.8c0-3.5-2.6-5.7-5.6-5.7h-34.3" class="st1"/><path id="path120" d="M1526 80.4c0 3.2 1.9 5.6 5.6 5.6h3.3c3.7 0 5.7-2.5 5.7-5.6v-74c0-3-1.9-5.5-5.7-5.5h-3.2c-3.7 0-5.7 2.5-5.7 5.5v74" class="st1"/><path id="path122" d="M1595.9 15.1c15.9 0 26.2 11.8 26.2 28.2 0 17-9.9 28.6-26.3 28.6h-11.5V15.1h11.6zM1575.3.9c-3.9 0-5.5 2.7-5.5 5.6v73.7c0 2.9 1.8 5.7 5.5 5.7h20c24.8 0 41.3-16.9 41.3-42.7 0-25.2-17.4-42.4-41.1-42.4h-20.2" class="st1"/><path id="path124" d="M1718 26.3C1718 13 1705.8 0 1686.2 0c-18.8 0-32.8 9.9-33.1 29.5 0 3.2 2.1 5.7 5.5 5.7h3.9c3.3 0 5.7-2 6-5.5.7-10.5 7.4-15.4 17.8-15.4 10.1 0 16.4 5.3 16.4 11.7 0 5-2.9 8.3-10.4 10.1-4.4 1.1-9.2 2.3-14.2 3.8-9.8 2.8-21.3 8.6-21.3 22.5 0 15.8 12.8 24.7 29 24.7 15.4 0 28.2-9.5 29.7-23.8.3-3.4-1.6-6-5.6-6h-3.4c-3.3 0-5.6 2.2-6 5.3-.7 7-6.9 10.6-15 10.6s-13.9-4.3-13.8-10.5c.1-5.2 5.4-7.6 11.1-9.1 4.6-1.3 8.4-2.2 13.2-3.4 15.2-3.6 22-11.6 22-23.9" class="st1"/><path id="path126" d="M1765.7 15.1c15.9 0 26.2 11.8 26.2 28.2 0 17-9.9 28.6-26.3 28.6h-11.5V15.1h11.6zM1745.1.9c-3.9 0-5.5 2.7-5.5 5.6v73.7c0 2.9 1.8 5.7 5.5 5.7h20c24.8 0 41.3-16.9 41.3-42.7 0-25.2-17.4-42.4-41.1-42.4h-20.2" class="st1"/><path id="path128" d="M1831.6 80.4c0 3.2 1.9 5.6 5.6 5.6h3.3c3.7 0 5.7-2.5 5.7-5.6v-74c0-3-1.9-5.5-5.7-5.5h-3.2c-3.7 0-5.7 2.5-5.7 5.5v74" class="st1"/><path id="path130" d="M1890.1 71.7V52.1h26.3c3.3 0 5.8-2.1 5.8-5.7v-2.8c0-3.6-2.6-5.7-5.8-5.7h-26.3V15.2h36.4c3.5 0 5.9-2.6 5.9-5.6v-3c0-3.1-2.3-5.6-5.9-5.6h-45.4c-4 0-5.7 2.6-5.7 5.6v73.7c0 3 1.8 5.7 5.7 5.7h43.3c3.1 0 5.6-2.1 5.6-5.7v-2.8c0-3.5-2.6-5.7-5.6-5.7h-34.3" class="st1"/><path id="path132" d="M1952.2 80.3c0 2.9 1.9 5.7 5.9 5.7h5.6c2.3 0 4.4-1.6 5.5-3.5l30.6-54.3-.1 52.1c0 3.2 2 5.7 5.5 5.7h3.5c3.8 0 5.6-2.6 5.6-5.7V6.7c0-3-2-5.7-5.7-5.7h-5c-2.3 0-4.2 1.5-5.2 3.2l-31.6 56.2.2-53.7c0-2.9-1.5-5.6-5.5-5.6h-3.6c-4 0-5.6 2.7-5.6 5.6v73.6" class="st1"/><path id="path134" d="M2100.9 26.3c0-13.3-12.2-26.3-31.8-26.3-18.9 0-32.8 9.9-33.1 29.5 0 3.2 2.1 5.7 5.5 5.7h3.9c3.3 0 5.7-2 6-5.5.7-10.5 7.4-15.4 17.8-15.4 10.1 0 16.4 5.3 16.4 11.7 0 5-2.9 8.3-10.4 10.1-4.4 1.1-9.2 2.3-14.2 3.8-9.8 2.8-21.3 8.6-21.3 22.5 0 15.8 12.8 24.7 29 24.7 15.4 0 28.2-9.5 29.7-23.8.4-3.4-1.6-6-5.6-6h-3.4c-3.3 0-5.6 2.2-6 5.3-.7 7-6.9 10.6-15 10.6s-13.9-4.3-13.8-10.5c.1-5.2 5.4-7.6 11.1-9.1 4.6-1.3 8.4-2.2 13.2-3.4 15.2-3.6 22-11.6 22-23.9" class="st1"/><path id="path136" d="M2113.6 71.7c-3.3 0-5.6 2.2-5.6 5.7v2.8c0 3.5 2.4 5.7 5.6 5.7h54.9c3.3 0 5.6-2.2 5.6-5.7v-2.8c0-3.5-2.4-5.7-5.6-5.7h-20.1V6.5c0-3-2.1-5.6-5.7-5.6h-3.3c-3.6 0-5.6 2.6-5.6 5.6v65.2h-20.2" class="st1"/><path id="path138" d="M2257.7 15.1c6.7 0 11.5 4.7 11.5 11.5 0 6.9-5.3 11.6-12.1 11.6h-22.3v-23h22.9zm-22.9 36.5h18.6c3.6 1.1 7 5.2 7.1 9.6.1 6.1-4.3 10.5-10.6 10.5h-15.1V51.6zM2225.6.9c-4 0-5.7 2.7-5.7 5.6v73.7c0 2.9 1.8 5.7 5.7 5.7h24.1c15.3 0 25.6-9.8 25.6-24.1 0-4.8-2.7-10-6-13 8.5-3.2 14.8-12.7 14.8-22.5 0-15.4-10.7-25.5-26.1-25.5l-32.4.1" class="st1"/><path id="path140" d="M2320.2 71.7v-24h17.4c8.7 0 13.2 4.7 13.2 11.6 0 7.4-4.7 12.4-12.5 12.4h-18.1zm47.3-63c2.6-3.8.1-7.7-4.3-7.7h-4.8c-2.2 0-4.6 1.3-5.9 3.2l-19.1 29.7h-13.2V6.5c0-2.9-1.7-5.6-5.7-5.6h-3.4c-4 0-5.9 2.7-5.9 5.6v73.7c0 2.9 1.9 5.7 5.9 5.7h27.4c16.6 0 27.7-10.9 27.7-26.2 0-12.4-7.7-21.2-17.2-24.1l18.5-26.9" class="st1"/><path id="path142" d="M2389.7 30v50.3c0 2.9 1.8 5.7 5.8 5.7h3.4c4 0 5.8-2.8 5.8-5.7V29.7c0-10 6.6-15.7 16.1-15.7 9.7 0 16 5.7 16 15.7v50.5c0 2.9 1.8 5.7 5.7 5.7h3.3c4 0 5.7-2.8 5.7-5.7V30c0-18.5-11.8-30-30.8-30-19.2 0-31 11.3-31 30" class="st1"/><path id="path144" d="M2538.1 26.3c0-13.3-12.2-26.3-31.8-26.3-18.8 0-32.8 9.9-33.1 29.5 0 3.2 2.1 5.7 5.5 5.7h3.9c3.3 0 5.8-2 6-5.5.7-10.5 7.4-15.4 17.8-15.4 10.1 0 16.4 5.3 16.4 11.7 0 5-2.9 8.3-10.4 10.1-4.4 1.1-9.2 2.3-14.2 3.8-9.8 2.8-21.3 8.6-21.3 22.5 0 15.8 12.8 24.7 29 24.7 15.4 0 28.2-9.5 29.7-23.8.4-3.4-1.6-6-5.6-6h-3.4c-3.3 0-5.6 2.2-6 5.3-.7 7-6.9 10.6-15 10.6s-13.9-4.3-13.8-10.5c.1-5.2 5.4-7.6 11.1-9.1 4.6-1.3 8.4-2.2 13.2-3.4 15.2-3.6 22-11.6 22-23.9" class="st1"/><path id="path146" d="M2619.4 26.3c0-13.3-12.2-26.3-31.8-26.3-18.8 0-32.8 9.9-33.1 29.5 0 3.2 2.1 5.7 5.5 5.7h3.9c3.3 0 5.7-2 6-5.5.7-10.5 7.4-15.4 17.8-15.4 10.1 0 16.4 5.3 16.4 11.7 0 5-2.9 8.3-10.4 10.1-4.4 1.1-9.3 2.3-14.2 3.8-9.8 2.8-21.3 8.6-21.3 22.5 0 15.8 12.8 24.7 29 24.7 15.4 0 28.2-9.5 29.7-23.8.4-3.4-1.6-6-5.6-6h-3.4c-3.3 0-5.6 2.2-6 5.3-.7 7-6.9 10.6-15 10.6s-13.9-4.3-13.8-10.5c.1-5.2 5.4-7.6 11.1-9.1 4.6-1.3 8.4-2.2 13.2-3.4 15.2-3.6 22-11.6 22-23.9" class="st1"/><path id="path148" d="M2655.7 71.7V52.1h26.3c3.3 0 5.9-2.1 5.9-5.7v-2.8c0-3.6-2.6-5.7-5.9-5.7h-26.3V15.2h36.4c3.5 0 5.8-2.6 5.8-5.6v-3c0-3.1-2.3-5.6-5.8-5.6h-45.4c-4 0-5.7 2.6-5.7 5.6v73.7c0 3 1.8 5.7 5.7 5.7h43.3c3 0 5.6-2.1 5.6-5.7v-2.8c0-3.5-2.6-5.7-5.6-5.7h-34.3" class="st1"/><path id="path150" d="M2723.5.9c-4 0-5.6 2.7-5.6 5.6v73.7c0 2.9 1.9 5.7 5.6 5.7h3.4c3.8 0 5.6-2.8 5.6-5.7V15.3h33.7c2.9 0 5.6-1.8 5.6-5.6V6.5c0-3.8-2.7-5.6-5.6-5.6h-42.7" class="st1"/></g></g></svg>